<?xml version="1.0" standalone="no"?>
<!DOCTYPE svg PUBLIC "-//W3C//DTD SVG 1.1//EN" "http://www.w3.org/Graphics/SVG/1.1/DTD/svg11.dtd" >
<svg xmlns="http://www.w3.org/2000/svg">
<metadata></metadata>
<defs>
<font id="core_sans_m_35_lightregular" horiz-adv-x="566" >
<font-face units-per-em="1000" ascent="800" descent="-200" />
<missing-glyph horiz-adv-x="300" />
<glyph unicode="&#xfb01;" horiz-adv-x="573" d="M323 678q-40 4 -67 4q-42 0 -60.5 -21t-18.5 -67v-76h290q13 0 13 -12v-494q0 -12 -13 -12h-40q-13 0 -13 12v450h-237v-450q0 -12 -13 -12h-40q-13 0 -13 12v450h-85q-13 0 -13 12v32q0 12 13 12h85v89q0 131 135 131q43 0 80 -10q11 -3 11 -14v-26q0 -11 -14 -10z M486 703q0 -46 -12 -85q-4 -14 -17 -14h-30q-13 0 -13 12v87q0 12 13 12h46q13 0 13 -12z" />
<glyph unicode="&#xfb02;" horiz-adv-x="621" d="M598 2q-31 -10 -73 -10q-58 0 -84.5 31.5t-26.5 94.5v559q-66 5 -158 5q-42 0 -60.5 -21t-18.5 -67v-76h147q13 0 13 -12v-32q0 -12 -13 -12h-147v-450q0 -12 -13 -12h-40q-13 0 -13 12v450h-85q-13 0 -13 12v32q0 12 13 12h85v89q0 131 137 131q86 0 179 -8h40 q13 0 13 -12v-594q0 -43 15.5 -59.5t51.5 -16.5q27 0 50 5q12 2 12 -11v-25q0 -11 -11 -15z" />
<glyph unicode="&#xfb03;" horiz-adv-x="869" d="M619 678q-40 4 -67 4q-42 0 -60.5 -21t-18.5 -67v-76h290q13 0 13 -12v-494q0 -12 -13 -12h-40q-13 0 -13 12v450h-237v-450q0 -12 -13 -12h-40q-13 0 -13 12v450h-230v-450q0 -12 -13 -12h-40q-13 0 -13 12v450h-85q-13 0 -13 12v32q0 12 13 12h85v89q0 131 135 131 q65 0 104 -11q11 -3 11 -14v-25q0 -11 -14 -10q-46 4 -82 4q-48 0 -68 -20.5t-20 -67.5v-76h230v89q0 131 135 131q43 0 80 -10q11 -3 11 -14v-26q0 -11 -14 -10zM782 703q0 -46 -12 -85q-4 -14 -17 -14h-30q-13 0 -13 12v87q0 12 13 12h46q13 0 13 -12z" />
<glyph unicode="&#xfb04;" horiz-adv-x="917" d="M894 2q-31 -10 -73 -10q-58 0 -84.5 31.5t-26.5 94.5v559q-66 5 -158 5q-42 0 -60.5 -21t-18.5 -67v-76h147q13 0 13 -12v-32q0 -12 -13 -12h-147v-450q0 -12 -13 -12h-40q-13 0 -13 12v450h-230v-450q0 -12 -13 -12h-40q-13 0 -13 12v450h-85q-13 0 -13 12v32 q0 12 13 12h85v89q0 131 135 131q65 0 104 -11q11 -3 11 -14v-25q0 -11 -14 -10q-46 4 -82 4q-48 0 -68 -20.5t-20 -67.5v-76h230v89q0 131 137 131q86 0 179 -8h40q13 0 13 -12v-594q0 -43 15.5 -59.5t51.5 -16.5q27 0 50 5q12 2 12 -11v-25q0 -11 -11 -15z" />
<glyph horiz-adv-x="333" />
<glyph horiz-adv-x="0" />
<glyph horiz-adv-x="0" />
<glyph unicode="&#xd;" horiz-adv-x="237" />
<glyph unicode=" "  horiz-adv-x="300" />
<glyph unicode="&#x09;" horiz-adv-x="300" />
<glyph unicode="&#xa0;" horiz-adv-x="300" />
<glyph unicode="!" horiz-adv-x="257" d="M88 106q0 16 13 16h55q13 0 13 -12v-98q0 -12 -14 -12h-37q-13 0 -17 11q-13 39 -13 95zM104 700h49q13 0 13 -12v-173l-9 -323q0 -13 -14 -13h-29q-14 0 -14 13l-9 323v173q0 12 13 12z" />
<glyph unicode="&#x22;" horiz-adv-x="464" d="M115 437l-12 252q0 11 12 11h53q11 0 11 -11v-18q0 -118 -16 -228q-3 -15 -17 -15h-20q-11 0 -11 9zM297 437l-12 252q0 11 12 11h53q11 0 11 -11v-18q0 -118 -16 -228q-3 -15 -17 -15h-20q-11 0 -11 9z" />
<glyph unicode="#" horiz-adv-x="680" d="M90 517h120l30 172q2 11 14 11h42q12 0 11 -11l-30 -172h183l30 172q2 11 14 11h42q12 0 11 -11l-30 -172h102q13 0 13 -12v-33q0 -12 -13 -12h-112l-38 -216h111q13 0 13 -12v-33q0 -12 -13 -12h-121l-30 -176q-2 -11 -14 -11h-42q-12 0 -11 11l30 176h-183l-30 -176 q-2 -11 -14 -11h-42q-12 0 -11 11l30 176h-101q-13 0 -13 12v33q0 12 13 12h111l38 216h-110q-13 0 -13 12v33q0 12 13 12zM267 460l-38 -216h183l38 216h-183z" />
<glyph unicode="$" horiz-adv-x="536" d="M323 297l-26 12v-259q62 7 89 35t27 79q0 48 -21 79.5t-69 53.5zM128 539q0 -81 89 -122l26 -12v245q-61 -5 -88 -31.5t-27 -79.5zM243 711v77q0 12 13 12h28q13 0 13 -12v-76q68 -3 142 -17q10 -2 10 -10v-34q0 -11 -13 -9q-73 9 -139 10v-272l73 -34q113 -53 113 -183 q0 -79 -44.5 -122.5t-141.5 -50.5v-76q0 -12 -13 -12h-28q-13 0 -13 12v74q-94 2 -173 17q-10 1 -10 10v34q0 11 13 10q83 -11 170 -11v286l-72 33q-113 52 -113 173q0 160 185 171z" />
<glyph unicode="%" horiz-adv-x="877" d="M189 13l425 677q7 10 18 10h48q15 0 7 -13l-425 -677q-7 -10 -18 -10h-48q-15 0 -7 13zM388 540v-22q0 -80 -40 -124t-113 -44t-113 44t-40 124v22q0 80 40 124t113 44t113 -44t40 -124zM325 523v12q0 115 -90 115t-90 -115v-12q0 -115 90 -115t90 115zM794 182v-22 q0 -80 -40 -124t-113 -44t-113 44t-40 124v22q0 80 40 124t113 44t113 -44t40 -124zM731 165v12q0 115 -90 115t-90 -115v-12q0 -115 90 -115t90 115z" />
<glyph unicode="&#x26;" horiz-adv-x="721" d="M242 491l266 -315q34 63 48 161q2 12 13 10l33 -6q13 -2 11 -19q-15 -118 -61 -198l92 -108q5 -5 3.5 -10.5t-9.5 -5.5h-51q-15 0 -25 11l-51 59q-78 -82 -212 -82q-108 0 -167.5 49t-59.5 132q0 137 166 222q-67 78 -91.5 116.5t-24.5 81.5q0 123 181 123q77 0 159 -16 q10 -1 10 -14v-30q0 -10 -10 -9q-80 10 -146 10q-69 0 -96.5 -16.5t-27.5 -48.5q0 -38 50 -97zM303 48q103 0 166 71l-197 232q-130 -78 -130 -180q0 -59 41.5 -91t119.5 -32z" />
<glyph unicode="'" horiz-adv-x="272" d="M110 437l-12 252q0 11 12 11h53q11 0 11 -11v-18q0 -118 -16 -228q-2 -15 -17 -15h-20q-11 0 -11 9z" />
<glyph unicode="(" horiz-adv-x="389" d="M103 302q0 426 239 459q14 2 14 -10v-29q0 -10 -12 -13q-173 -42 -173 -407t173 -407q12 -3 12 -13v-29q0 -12 -14 -10q-239 33 -239 459z" />
<glyph unicode=")" horiz-adv-x="389" d="M286 302q0 -426 -239 -459q-14 -2 -14 10v29q0 10 12 13q173 42 173 407t-173 407q-12 3 -12 13v29q0 12 14 10q239 -33 239 -459z" />
<glyph unicode="*" horiz-adv-x="624" d="M312 284q-46 -94 -116 -191q-9 -14 -22 -5l-35 25q-10 8 -1 22q71 99 145 170q-112 17 -218 52q-15 5 -11 19l13 41q4 13 20 8q118 -39 207 -86q-18 100 -18 224q0 16 14 16h43q14 0 14 -16q0 -116 -18 -224q89 47 207 86q16 5 20 -8l13 -41q4 -14 -11 -19 q-106 -35 -218 -52q74 -71 145 -170q9 -14 -1 -22l-35 -25q-13 -9 -22 5q-66 92 -115 191z" />
<glyph unicode="+" horiz-adv-x="618" d="M343 361h192q13 0 13 -12v-34q0 -12 -13 -12h-192v-206q0 -12 -13 -12h-42q-13 0 -13 12v206h-192q-13 0 -13 12v34q0 12 13 12h192v206q0 12 13 12h42q13 0 13 -12v-206z" />
<glyph unicode="," horiz-adv-x="254" d="M88 -117l-22 13q-7 3 -2 11q31 56 31 111q0 4 -5 39q-5 30 -5 53q0 12 13 12h55q13 0 13 -12v-27q0 -109 -64 -198q-6 -7 -14 -2z" />
<glyph unicode="-" horiz-adv-x="432" d="M86 363h260q13 0 13 -12v-38q0 -12 -13 -12h-260q-13 0 -13 12v38q0 12 13 12z" />
<glyph unicode="." horiz-adv-x="254" d="M85 106q0 16 13 16h55q13 0 13 -12v-98q0 -12 -14 -12h-37q-13 0 -17 11q-13 39 -13 95z" />
<glyph unicode="/" horiz-adv-x="476" d="M-5 -92l418 832q5 9 16 9h43q17 0 9 -18l-418 -832q-5 -9 -16 -9h-43q-17 0 -9 18z" />
<glyph unicode="0" horiz-adv-x="532" d="M495 350q0 -190 -52 -276t-177 -86t-177 86t-52 276t52 276t177 86t177 -86t52 -276zM107 350q0 -171 35.5 -236.5t123.5 -65.5t123.5 65.5t35.5 236.5t-35.5 236.5t-123.5 65.5t-123.5 -65.5t-35.5 -236.5z" />
<glyph unicode="1" horiz-adv-x="532" d="M341 688v-676q0 -12 -13 -12h-44q-13 0 -13 12v626h-21q-53 0 -116 -9q-10 -1 -10 9v33q0 9 9 10q84 19 170 19h25q13 0 13 -12z" />
<glyph unicode="2" horiz-adv-x="532" d="M127 60h323q13 0 13 -12v-36q0 -12 -13 -12h-380q-14 0 -14 13v49q0 81 49 145t145 124q77 48 110 92t33 105q0 68 -36 96t-125 28q-60 0 -135 -10q-9 0 -9 9v33q0 8 8 11q65 17 143 17q121 0 172.5 -42t51.5 -142q0 -140 -174 -249q-162 -99 -162 -208v-11z" />
<glyph unicode="3" horiz-adv-x="532" d="M197 48q192 0 192 143q0 72 -38 106t-119 34h-128q-13 0 -13 12v36q0 12 13 12h116q159 0 159 133q0 128 -164 128q-63 0 -133 -10q-12 -2 -12 9v33q0 9 10 12q57 16 139 16q110 0 170 -49.5t60 -137.5q0 -110 -93 -161q103 -46 103 -170q0 -95 -64 -150.5t-193 -55.5 q-86 0 -144 16q-10 3 -10 12v32q0 12 12 10q68 -10 137 -10z" />
<glyph unicode="4" horiz-adv-x="532" d="M412 152v-140q0 -12 -13 -12h-44q-13 0 -13 12v140h-296q-14 0 -14 12v41q0 17 9 44q29 95 83.5 228t94.5 213q5 10 21 10h40q20 0 10 -19q-113 -213 -185 -469h237v228q0 12 13 12h44q13 0 13 -12v-228h83q13 0 13 -12v-36q0 -12 -13 -12h-83z" />
<glyph unicode="5" horiz-adv-x="532" d="M213 48q184 0 184 141v20q0 139 -150 139h-135q-24 0 -22 25l22 305q2 22 25 22h307q13 0 13 -12v-36q0 -12 -13 -12h-267l-18 -232h80q228 0 228 -195v-25q0 -94 -63 -147t-185 -53q-76 0 -137 16q-10 3 -10 12v32q0 12 12 10q68 -10 129 -10z" />
<glyph unicode="6" horiz-adv-x="532" d="M270 712q80 0 146 -17q10 -3 10 -11v-32q0 -12 -13 -10q-65 10 -128 10q-85 0 -119.5 -48t-34.5 -160v-46q66 21 141 21q107 0 158.5 -49t51.5 -137v-31q0 -106 -55.5 -160t-154.5 -54q-211 0 -211 212v238q0 274 209 274zM269 48q73 0 108 37.5t35 117.5v23 q0 66 -37.5 99.5t-120.5 33.5q-65 0 -123 -8v-155q0 -148 138 -148z" />
<glyph unicode="7" horiz-adv-x="532" d="M61 700h387q14 0 14 -13v-35q0 -16 -8 -29q-165 -272 -248 -611q-3 -12 -17 -12h-44q-12 0 -9 17q66 290 251 623h-326q-13 0 -13 12v36q0 12 13 12z" />
<glyph unicode="8" horiz-adv-x="532" d="M466 526q0 -115 -94 -175q121 -66 121 -178q0 -93 -55.5 -139t-171.5 -46q-227 0 -227 188q0 129 117 199q-90 53 -90 159q0 87 51.5 132.5t147.5 45.5q201 0 201 -186zM109 176q0 -65 37 -96.5t120 -31.5q81 0 119 29.5t38 94.5q0 61 -53 102.5t-157 73.5 q-104 -58 -104 -172zM396 526q0 65 -32 95.5t-99 30.5q-129 0 -129 -117q0 -62 37.5 -93t140.5 -65q82 52 82 149z" />
<glyph unicode="9" horiz-adv-x="532" d="M262 -12q-80 0 -146 17q-10 3 -10 11v32q0 12 13 10q65 -10 128 -10q85 0 119.5 48t34.5 160v46q-66 -21 -141 -21q-107 0 -158.5 49t-51.5 137v31q0 106 55.5 160t154.5 54q211 0 211 -212v-238q0 -274 -209 -274zM263 652q-73 0 -108 -37.5t-35 -117.5v-23 q0 -66 37.5 -99.5t120.5 -33.5q65 0 123 8v155q0 148 -138 148z" />
<glyph unicode=":" horiz-adv-x="254" d="M85 106q0 16 13 16h55q13 0 13 -12v-98q0 -12 -14 -12h-37q-13 0 -17 11q-13 39 -13 95zM166 421q0 -16 -13 -16h-55q-13 0 -13 12v98q0 12 14 12h37q13 0 17 -11q13 -39 13 -95z" />
<glyph unicode=";" horiz-adv-x="254" d="M166 421q0 -16 -13 -16h-55q-13 0 -13 12v98q0 12 14 12h37q13 0 17 -11q13 -39 13 -95zM88 -117l-22 13q-7 3 -2 11q31 56 31 111q0 4 -5 39q-5 30 -5 53q0 12 13 12h55q13 0 13 -12v-27q0 -109 -64 -198q-6 -7 -14 -2z" />
<glyph unicode="&#x3c;" horiz-adv-x="618" d="M70 317v30q0 12 9 18q157 97 437 216q11 5 15 -3l15 -27q5 -9 -5 -14l-401 -205l401 -205q10 -5 5 -14l-15 -27q-4 -8 -15 -3q-280 119 -437 216q-9 6 -9 18z" />
<glyph unicode="=" horiz-adv-x="618" d="M83 477h452q13 0 13 -12v-34q0 -12 -13 -12h-452q-13 0 -13 12v34q0 12 13 12zM83 245h452q13 0 13 -12v-34q0 -12 -13 -12h-452q-13 0 -13 12v34q0 12 13 12z" />
<glyph unicode="&#x3e;" horiz-adv-x="618" d="M548 347v-30q0 -12 -9 -18q-157 -97 -437 -216q-11 -5 -15 3l-15 27q-5 9 5 14l401 205l-401 205q-10 5 -5 14l15 27q4 8 15 3q280 -119 437 -216q9 -6 9 -18z" />
<glyph unicode="?" horiz-adv-x="482" d="M66 643q-13 -2 -13 9v34q0 7 10 10q59 16 137 16q209 0 209 -173q0 -95 -116 -199q-59 -54 -59 -138v-12q0 -11 -13 -11h-44q-13 0 -13 11v14q0 109 90 185q85 71 85 148q0 61 -34 88t-109 27q-60 0 -130 -9zM158 106q0 16 13 16h55q13 0 13 -12v-98q0 -12 -14 -12h-37 q-13 0 -17 11q-13 39 -13 95z" />
<glyph unicode="@" horiz-adv-x="849" d="M723 139v284q-1 124 -71.5 191t-197.5 67h-34q-299 0 -299 -357v-28q0 -373 359 -373h34q98 0 203 32q13 4 13 -7v-24q0 -12 -14 -18q-96 -33 -199 -33h-43q-108 0 -188 30.5t-128 87t-71.5 131t-23.5 166.5v44q0 191 91.5 295t259.5 104h40q158 0 242.5 -84t84.5 -232 v-277q0 -30 -25 -40q-94 -41 -221 -41h-16q-276 0 -276 236v35q0 95 52.5 152.5t146.5 57.5q79 0 122.5 -39.5t43.5 -107.5v-278q63 6 116 26h-1zM542 110v274q0 98 -97 98q-62 0 -99 -40t-37 -121v-28q0 -96 49.5 -139.5t163.5 -43.5h20z" />
<glyph unicode="A" horiz-adv-x="606" d="M271 700h64q18 0 24 -17l213 -670q5 -13 -10 -13h-47q-13 0 -16 9l-53 168h-287l-52 -168q-3 -9 -16 -9h-47q-15 0 -10 13l213 670q6 17 24 17zM303 637l-125 -400h250z" />
<glyph unicode="B" horiz-adv-x="629" d="M311 48q102 0 146 35t44 108q0 66 -36.5 103t-108.5 37h-193v-270q59 -13 148 -13zM282 652q-65 0 -119 -14v-247h151q76 0 116.5 33.5t40.5 95.5q0 69 -46 100.5t-143 31.5zM118 9q-25 7 -25 40v601q0 33 25 40q79 22 176 22q247 0 247 -192q0 -105 -86 -152 q116 -39 116 -178q0 -101 -60.5 -151.5t-191.5 -50.5q-127 0 -201 21z" />
<glyph unicode="C" horiz-adv-x="555" d="M502 4q-70 -16 -159 -16q-280 0 -280 345v33q0 346 278 346q81 0 151 -17q10 -3 10 -10v-34q0 -11 -13 -9q-73 10 -138 10q-114 0 -166 -70t-52 -220v-25q0 -150 52.5 -219.5t168.5 -69.5q70 0 145 10q13 1 13 -10v-34q0 -7 -10 -10z" />
<glyph unicode="D" horiz-adv-x="656" d="M163 639v-578q54 -13 115 -13q137 0 191 69.5t54 220.5v24q0 151 -54 220.5t-191 69.5q-61 0 -115 -13zM93 49v602q0 33 25 40q69 21 169 21q164 0 235 -86t71 -261v-30q0 -175 -71 -261t-235 -86q-100 0 -169 21q-25 7 -25 40z" />
<glyph unicode="E" horiz-adv-x="562" d="M241 -12q-91 0 -119.5 31.5t-28.5 118.5v424q0 87 28.5 118.5t119.5 31.5q119 0 236 -8q12 -2 12 -13v-27q0 -12 -13 -12h-252q-61 0 -61 -66v-196h293q13 0 13 -12v-36q0 -12 -13 -12h-293v-216q0 -66 61 -66h263q12 0 12 -12v-28q0 -10 -12 -12q-89 -8 -246 -8z" />
<glyph unicode="F" horiz-adv-x="547" d="M93 12v550q0 87 28.5 118.5t119.5 31.5q137 0 246 -8q12 -2 12 -13v-27q0 -12 -13 -12h-262q-61 0 -61 -66v-204h293q13 0 13 -12v-36q0 -12 -13 -12h-293v-310q0 -12 -13 -12h-44q-13 0 -13 12z" />
<glyph unicode="G" horiz-adv-x="653" d="M500 60v255h-169q-12 0 -12 12v36q0 12 12 12h226q13 0 13 -12v-314q0 -30 -26 -39q-70 -22 -185 -22q-162 0 -229 88t-67 258v32q0 173 68.5 259.5t229.5 86.5q93 0 176 -18q10 -1 10 -10v-34q0 -10 -13 -9q-82 11 -165 11q-134 0 -185 -68t-51 -222v-25 q0 -149 49.5 -219t181.5 -70q78 0 136 12z" />
<glyph unicode="H" horiz-adv-x="664" d="M501 390v298q0 12 13 12h44q13 0 13 -12v-676q0 -12 -13 -12h-44q-13 0 -13 12v318h-338v-318q0 -12 -13 -12h-44q-13 0 -13 12v676q0 12 13 12h44q13 0 13 -12v-298h338z" />
<glyph unicode="I" horiz-adv-x="276" d="M103 12v676q0 12 13 12h44q13 0 13 -12v-676q0 -12 -13 -12h-44q-13 0 -13 12z" />
<glyph unicode="J" horiz-adv-x="422" d="M17 5q-9 3 -9 10v34q0 11 12 9q70 -10 149 -10q51 0 71 30t20 100v510q0 12 13 12h44q13 0 13 -12v-520q0 -90 -34.5 -135t-111.5 -45q-97 0 -167 17z" />
<glyph unicode="K" horiz-adv-x="592" d="M482 700h57q7 0 8.5 -4t-2.5 -8l-304 -325l335 -351q4 -4 2 -8t-9 -4h-62q-12 0 -18 6l-326 348v-342q0 -12 -13 -12h-44q-13 0 -13 12v676q0 12 13 12h44q13 0 13 -12v-316l300 321q7 7 19 7z" />
<glyph unicode="L" horiz-adv-x="522" d="M93 117v571q0 12 13 12h44q13 0 13 -12v-576q0 -64 61 -64h272q13 0 13 -12v-28q0 -10 -12 -12q-104 -8 -259 -8q-84 0 -114.5 28.5t-30.5 100.5z" />
<glyph unicode="M" horiz-adv-x="806" d="M419 201h-32q-16 0 -22 12l-202 382v-583q0 -12 -13 -12h-44q-13 0 -13 12v676q0 12 13 12h57q17 0 24 -13l216 -408l216 408q7 13 24 13h57q13 0 13 -12v-676q0 -12 -13 -12h-44q-13 0 -13 12v583l-202 -382q-6 -12 -22 -12z" />
<glyph unicode="N" horiz-adv-x="679" d="M93 12v676q0 12 13 12h61q14 0 21 -12l328 -588v588q0 12 13 12h44q13 0 13 -12v-676q0 -12 -13 -12h-61q-14 0 -21 12l-328 588v-588q0 -12 -13 -12h-44q-13 0 -13 12z" />
<glyph unicode="O" horiz-adv-x="680" d="M547 338v24q0 150 -51 220t-156 70t-156 -70t-51 -220v-24q0 -150 51 -220t156 -70t156 70t51 220zM617 365v-30q0 -347 -277 -347t-277 347v30q0 347 277 347t277 -347z" />
<glyph unicode="P" horiz-adv-x="598" d="M118 690q79 22 180 22q126 0 186.5 -51.5t60.5 -155.5v-42q0 -207 -247 -207q-72 0 -135 9v-253q0 -12 -13 -12h-44q-13 0 -13 12v639q0 32 25 39zM163 639v-314q54 -9 119 -9q103 0 148 37.5t45 118.5v24q0 82 -45 119t-148 37q-60 0 -119 -13z" />
<glyph unicode="Q" horiz-adv-x="680" d="M617 365v-30q0 -223 -114 -303l92 -129q9 -13 -8 -13h-51q-12 0 -19 9l-75 103q-47 -14 -102 -14q-277 0 -277 347v30q0 347 277 347t277 -347zM547 338v24q0 150 -51 220t-156 70t-156 -70t-51 -220v-24q0 -150 51 -220t156 -70t156 70t51 220z" />
<glyph unicode="R" horiz-adv-x="621" d="M296 712q127 0 185.5 -51.5t58.5 -152.5v-26q0 -150 -127 -189l153 -281q6 -12 -8 -12h-49q-15 0 -21 10l-147 270q-26 -2 -44 -2q-78 0 -134 8v-274q0 -12 -13 -12h-44q-13 0 -13 12v639q0 32 25 39q80 22 178 22zM163 639v-293q48 -8 117 -8q105 0 147.5 37t42.5 116v8 q0 80 -43 116.5t-147 36.5q-58 0 -117 -13z" />
<glyph unicode="S" horiz-adv-x="536" d="M70 5q-10 1 -10 10v34q0 11 13 10q85 -11 172 -11q91 0 129.5 28t38.5 88q0 48 -21 79.5t-69 53.5l-152 70q-113 52 -113 173q0 87 52.5 129.5t165.5 42.5q81 0 163 -17q10 -2 10 -10v-34q0 -11 -13 -9q-80 10 -155 10q-82 0 -117.5 -26t-35.5 -87q0 -81 89 -122l153 -71 q113 -53 113 -183q0 -87 -54.5 -131t-176.5 -44q-99 0 -182 17z" />
<glyph unicode="T" horiz-adv-x="520" d="M225 12v628h-194q-13 0 -13 12v36q0 12 13 12h458q13 0 13 -12v-36q0 -12 -13 -12h-194v-628q0 -12 -13 -12h-44q-13 0 -13 12z" />
<glyph unicode="U" horiz-adv-x="686" d="M343 48q97 0 138.5 66t41.5 204v370q0 12 13 12h44q13 0 13 -12v-374q0 -169 -59 -247.5t-191 -78.5t-191 78.5t-59 247.5v374q0 12 13 12h44q13 0 13 -12v-370q0 -138 41.5 -204t138.5 -66z" />
<glyph unicode="V" horiz-adv-x="606" d="M335 0h-64q-18 0 -24 16l-213 670q-5 14 10 14h47q13 0 16 -10l196 -625l196 625q3 10 16 10h47q15 0 10 -14l-213 -670q-6 -16 -24 -16z" />
<glyph unicode="W" horiz-adv-x="904" d="M416 700h72q13 0 16 -12l149 -622l157 623q3 11 15 11h45q13 0 10 -14l-171 -669q-5 -17 -25 -17h-65q-19 0 -23 17l-144 604l-144 -604q-4 -17 -23 -17h-65q-20 0 -25 17l-171 669q-3 14 10 14h45q12 0 15 -11l157 -623l149 622q3 12 16 12z" />
<glyph unicode="X" horiz-adv-x="583" d="M479 9l-188 288l-187 -288q-6 -9 -17 -9h-54q-6 0 -8 3.5t1 9.5l225 346l-213 328q-3 6 -1 9.5t8 3.5h54q11 0 17 -9l175 -270l176 270q6 9 17 9h54q6 0 8 -3.5t-1 -9.5l-213 -328l225 -346q3 -6 1 -9.5t-8 -3.5h-54q-11 0 -17 9z" />
<glyph unicode="Y" horiz-adv-x="584" d="M97 690l195 -372l195 372q6 10 17 10h46q16 0 9 -14l-232 -439v-235q0 -12 -13 -12h-44q-13 0 -13 12v235l-232 439q-7 14 9 14h46q11 0 17 -10z" />
<glyph unicode="Z" horiz-adv-x="572" d="M506 612l-385 -552h390q13 0 13 -12v-36q0 -12 -13 -12h-444q-19 0 -19 18v37q0 19 10 33l385 552h-361q-13 0 -13 12v36q0 12 13 12h414q20 0 20 -19v-35q0 -20 -10 -34z" />
<glyph unicode="[" horiz-adv-x="390" d="M123 -146v896q0 12 13 12h43q101 0 176 -9q12 -1 12 -13v-25q0 -12 -13 -12h-163v-802h163q13 0 13 -12v-25q0 -12 -12 -13q-75 -9 -176 -9h-43q-13 0 -13 12z" />
<glyph unicode="\" horiz-adv-x="476" d="M63 740l418 -832q8 -18 -9 -18h-43q-11 0 -16 9l-418 832q-8 18 9 18h43q11 0 16 -9z" />
<glyph unicode="]" horiz-adv-x="390" d="M267 750v-896q0 -12 -13 -12h-43q-101 0 -176 9q-12 1 -12 13v26q0 12 13 12h163v802h-163q-13 0 -13 12v24q0 12 12 13q75 9 176 9h43q13 0 13 -12z" />
<glyph unicode="^" horiz-adv-x="576" d="M266 700h44q17 0 27 -13q73 -96 180 -291q7 -12 -5 -18l-27 -12q-12 -5 -19 5l-178 265l-178 -265q-7 -10 -19 -5l-27 12q-12 6 -5 18q107 195 180 291q10 13 27 13z" />
<glyph unicode="_" horiz-adv-x="500" d="M13 -110h474q13 0 13 -12v-28q0 -12 -13 -12h-474q-13 0 -13 12v28q0 12 13 12z" />
<glyph unicode="`" horiz-adv-x="386" d="M241 563q-76 60 -136 136q-8 9 1 16l34 23q10 7 18 -3l123 -147q8 -10 -1 -16l-17 -11q-11 -6 -22 2z" />
<glyph unicode="a" d="M460 12q-82 -20 -185 -20q-121 0 -171.5 38t-50.5 119q0 157 194 157q93 0 175 -28v30q0 94 -35 128t-140 34q-72 0 -132 -11q-14 -2 -14 9v28q0 8 9 11q68 19 153 19q124 0 174.5 -47.5t50.5 -152.5v-274q0 -33 -28 -40zM279 48q82 0 144 14h-1v173q-66 15 -148 15 q-83 0 -119 -23.5t-36 -77.5q0 -55 37 -78t123 -23z" />
<glyph unicode="b" horiz-adv-x="579" d="M289 526q109 0 173 -60t64 -180v-37q0 -121 -65 -189t-194 -68q-90 0 -156 22q-28 10 -28 42v662q0 12 13 12h40q13 0 13 -12v-215q61 23 140 23zM149 461v-398q43 -15 112 -15q97 0 148 52.5t51 155.5v23q0 101 -48.5 146t-145.5 45q-67 0 -117 -9z" />
<glyph unicode="c" horiz-adv-x="498" d="M300 -8q-122 0 -184.5 65.5t-62.5 182.5v37q0 117 62 183t184 66q77 0 135 -16q11 -3 11 -14v-26q0 -13 -14 -10q-57 10 -123 10q-189 0 -189 -197v-29q0 -99 46.5 -147.5t143.5 -48.5q70 0 127 10q14 3 14 -10v-26q0 -11 -11 -14q-52 -16 -139 -16z" />
<glyph unicode="d" horiz-adv-x="579" d="M290 526q79 0 140 -23v215q0 12 13 12h40q13 0 13 -12v-662q0 -32 -28 -42q-66 -22 -156 -22q-129 0 -194 68t-65 189v37q0 120 64 180t173 60zM430 63v398q-49 9 -117 9q-97 0 -145.5 -45t-48.5 -146v-23q0 -103 51 -155.5t148 -52.5q68 0 112 15z" />
<glyph unicode="e" horiz-adv-x="555" d="M120 273h264q28 0 40 10.5t12 36.5q0 74 -39.5 112t-112.5 38q-75 0 -118.5 -51.5t-45.5 -145.5zM457 9q-61 -17 -148 -17q-256 0 -256 263v22q0 117 61.5 183t169.5 66q105 0 161.5 -56t56.5 -149q0 -54 -30.5 -79t-94.5 -25h-256q9 -87 56 -128t140 -41q73 0 137 12 q14 3 14 -10v-27q0 -11 -11 -14z" />
<glyph unicode="f" horiz-adv-x="360" d="M323 678q-40 4 -67 4q-42 0 -60.5 -21t-18.5 -67v-76h147q13 0 13 -12v-32q0 -12 -13 -12h-147v-450q0 -12 -13 -12h-40q-13 0 -13 12v450h-85q-13 0 -13 12v32q0 12 13 12h85v89q0 131 135 131q43 0 80 -10q11 -3 11 -14v-26q0 -11 -14 -10z" />
<glyph unicode="g" horiz-adv-x="579" d="M430 1v22q-61 -23 -140 -23q-109 0 -173 60t-64 180v29q0 121 65 189t194 68q90 0 156 -22q28 -10 28 -42v-469q0 -102 -50 -147.5t-165 -45.5q-90 0 -156 17q-11 3 -11 15v26q0 13 14 10q64 -12 142 -12q92 0 126 34.5t34 110.5zM430 65v390q-43 15 -112 15 q-97 0 -148 -52.5t-51 -155.5v-15q0 -101 48.5 -146t145.5 -45q68 0 117 9z" />
<glyph unicode="h" horiz-adv-x="585" d="M301 526q104 0 155 -47t51 -147v-320q0 -12 -13 -12h-40q-13 0 -13 12v315q0 76 -36 109.5t-124 33.5q-73 0 -132 -9v-449q0 -12 -13 -12h-40q-13 0 -13 12v706q0 12 13 12h40q13 0 13 -12v-216q69 24 152 24z" />
<glyph unicode="i" horiz-adv-x="252" d="M93 12v494q0 12 13 12h40q13 0 13 -12v-494q0 -12 -13 -12h-40q-13 0 -13 12zM165 703q0 -46 -12 -85q-4 -14 -17 -14h-30q-13 0 -13 12v87q0 12 13 12h46q13 0 13 -12z" />
<glyph unicode="j" horiz-adv-x="255" d="M-22 -191q-11 3 -11 15v25q0 12 12 11q28 -4 52 -4q36 0 50.5 16.5t14.5 57.5v576q0 12 13 12h40q13 0 13 -12v-558q0 -77 -23.5 -112.5t-87.5 -35.5q-40 0 -73 9zM168 703q0 -46 -12 -85q-4 -14 -17 -14h-30q-13 0 -13 12v87q0 12 13 12h46q13 0 13 -12z" />
<glyph unicode="k" horiz-adv-x="526" d="M477 502l-249 -229l280 -257q6 -5 4.5 -10.5t-10.5 -5.5h-55q-12 0 -22 10l-276 255v-253q0 -12 -13 -12h-40q-13 0 -13 12v706q0 12 13 12h40q13 0 13 -12v-437l250 230q7 7 19 7h52q10 0 11.5 -5t-4.5 -11z" />
<glyph unicode="l" horiz-adv-x="300" d="M277 2q-31 -10 -73 -10q-58 0 -84.5 31.5t-26.5 94.5v600q0 12 13 12h40q13 0 13 -12v-594q0 -43 15.5 -59.5t51.5 -16.5q27 0 50 5q12 2 12 -11v-25q0 -11 -11 -15z" />
<glyph unicode="m" horiz-adv-x="815" d="M269 526q81 0 126 -37q74 37 166 37q176 0 176 -157v-357q0 -12 -13 -12h-40q-13 0 -13 12v346q0 63 -28.5 87.5t-88.5 24.5q-67 0 -126 -25q15 -31 15 -76v-357q0 -12 -13 -12h-40q-13 0 -13 12v346q0 61 -28 86.5t-87 25.5q-62 0 -113 -14v-444q0 -12 -13 -12h-40 q-13 0 -13 12v450q0 33 28 42q74 22 158 22z" />
<glyph unicode="n" horiz-adv-x="585" d="M149 456v-444q0 -12 -13 -12h-40q-13 0 -13 12v450q0 33 28 42q72 22 175 22q115 0 168 -46.5t53 -147.5v-320q0 -12 -12 -12h-41q-13 0 -13 12v317q0 77 -37.5 109t-125.5 32q-71 0 -129 -14z" />
<glyph unicode="o" d="M513 276v-34q0 -120 -60 -185t-170 -65t-170 65t-60 185v34q0 120 60 185t170 65t170 -65t60 -185zM447 247v24q0 199 -164 199t-164 -199v-24q0 -199 164 -199t164 199z" />
<glyph unicode="p" horiz-adv-x="579" d="M289 -8q-79 0 -140 23v-196q0 -12 -13 -12h-40q-13 0 -13 12v643q0 32 28 42q66 22 156 22q129 0 194 -68t65 -189v-37q0 -120 -64 -180t-173 -60zM149 455v-398q50 -9 117 -9q97 0 145.5 45t48.5 146v23q0 103 -51 155.5t-148 52.5q-69 0 -112 -15z" />
<glyph unicode="q" horiz-adv-x="579" d="M290 -8q-109 0 -173 60t-64 180v37q0 121 65 189t194 68q90 0 156 -22q28 -10 28 -42v-643q0 -12 -13 -12h-40q-13 0 -13 12v196q-61 -23 -140 -23zM430 57v398q-43 15 -112 15q-97 0 -148 -52.5t-51 -155.5v-23q0 -101 48.5 -146t145.5 -45q68 0 117 9z" />
<glyph unicode="r" horiz-adv-x="397" d="M360 461q-39 7 -93 7q-63 0 -118 -15v-441q0 -12 -13 -12h-40q-13 0 -13 12v450q0 35 28 42q77 22 158 22q62 0 94 -4q11 -1 11 -14v-37q0 -13 -14 -10z" />
<glyph unicode="s" horiz-adv-x="466" d="M229 -8q-96 0 -161 17q-10 2 -10 11v30q0 11 13 10q77 -12 155 -12q121 0 121 81q0 62 -71 92l-109 45q-109 45 -109 131q0 129 171 129q74 0 144 -17q11 -3 11 -11v-29q0 -13 -13 -10q-63 11 -138 11q-56 0 -82.5 -17t-26.5 -55q0 -52 71 -80l109 -45q109 -46 109 -143 q0 -68 -49 -103t-135 -35z" />
<glyph unicode="t" horiz-adv-x="407" d="M357 2q-29 -10 -85 -10q-74 0 -106 39.5t-32 121.5v309h-93q-13 0 -13 12v32q0 12 13 12h93v126q0 12 13 12h40q13 0 13 -12v-126h144q13 0 13 -12v-32q0 -12 -13 -12h-144v-323q0 -47 18 -69t61 -22q34 0 76 5q12 2 12 -11v-25q0 -12 -10 -15z" />
<glyph unicode="u" horiz-adv-x="590" d="M441 62v444q0 12 13 12h40q13 0 13 -12v-450q0 -33 -28 -42q-72 -22 -175 -22q-115 0 -168 46.5t-53 147.5v320q0 12 12 12h41q13 0 13 -12v-317q0 -77 37.5 -109t125.5 -32q71 0 129 14z" />
<glyph unicode="v" horiz-adv-x="522" d="M293 0h-64q-16 0 -22 15l-177 488q-5 15 10 15h41q12 0 16 -11l164 -448l164 448q4 11 16 11h41q15 0 10 -15l-177 -488q-6 -15 -22 -15z" />
<glyph unicode="w" horiz-adv-x="774" d="M360 518h54q16 0 21 -15l124 -450l118 454q3 11 15 11h42q16 0 11 -15l-135 -487q-4 -16 -22 -16h-59q-17 0 -22 16l-120 440l-120 -440q-5 -16 -22 -16h-59q-18 0 -22 16l-135 487q-4 15 11 15h42q12 0 15 -11l118 -454l124 450q5 15 21 15z" />
<glyph unicode="x" horiz-adv-x="528" d="M120 509l144 -187l144 187q8 9 20 9h44q9 0 11.5 -5t-2.5 -10l-178 -231l198 -257q5 -5 2.5 -10t-11.5 -5h-44q-12 0 -20 9l-164 212l-164 -212q-8 -9 -20 -9h-44q-9 0 -11.5 5t2.5 10l198 257l-178 231q-5 5 -2.5 10t11.5 5h44q12 0 20 -9z" />
<glyph unicode="y" horiz-adv-x="590" d="M292 -200q-90 0 -156 17q-11 3 -11 15v26q0 13 14 10q65 -12 142 -12q92 0 126 33t34 112v22q-69 -23 -153 -23q-106 0 -155.5 50t-49.5 166v290q0 12 13 12h40q13 0 13 -12v-303q0 -80 37.5 -113.5t126.5 -33.5q77 0 128 9v441q0 12 13 12h40q13 0 13 -12v-513 q0 -102 -50 -147.5t-165 -45.5z" />
<glyph unicode="z" horiz-adv-x="493" d="M69 90l293 371h-281q-13 0 -13 12v33q0 12 13 12h328q20 0 20 -20v-30q0 -19 -16 -40l-293 -372h307q13 0 13 -12v-32q0 -12 -13 -12h-354q-20 0 -20 20v30q0 19 16 40z" />
<glyph unicode="{" horiz-adv-x="453" d="M83 289v26q0 12 13 14q46 8 65 36t19 79v123q0 100 48.5 147.5t121.5 47.5q45 0 71 -8q9 -3 9 -12v-28q0 -12 -13 -12h-39q-67 0 -98.5 -33t-31.5 -110v-90q0 -72 -20 -112t-68 -55q48 -15 68 -55t20 -112v-90q0 -77 31.5 -110t98.5 -33h39q13 0 13 -12v-28q0 -9 -9 -12 q-26 -8 -71 -8q-73 0 -121.5 47.5t-48.5 147.5v123q0 51 -19 79t-65 36q-13 2 -13 14z" />
<glyph unicode="|" horiz-adv-x="286" d="M113 -188v945q0 12 13 12h34q13 0 13 -12v-945q0 -12 -13 -12h-34q-13 0 -13 12z" />
<glyph unicode="}" horiz-adv-x="453" d="M370 315v-26q0 -12 -13 -14q-46 -8 -65 -36t-19 -79v-123q0 -100 -48.5 -147.5t-121.5 -47.5q-45 0 -71 8q-9 3 -9 12v28q0 12 13 12h39q67 0 98.5 33t31.5 110v90q0 72 20 112t68 55q-48 15 -68 55t-20 112v90q0 77 -31.5 110t-98.5 33h-39q-13 0 -13 12v28q0 9 9 12 q26 8 71 8q73 0 121.5 -47.5t48.5 -147.5v-123q0 -51 19 -79t65 -36q13 -2 13 -14z" />
<glyph unicode="~" horiz-adv-x="618" d="M514 434h27q13 0 14 -9q4 -19 4 -51q0 -65 -31.5 -99.5t-86.5 -34.5q-70 0 -143 66q-81 73 -121 73q-31 0 -46 -25.5t-15 -85.5v-13q0 -11 -12 -11h-27q-13 0 -14 9q-4 19 -4 51q0 65 31.5 99.5t86.5 34.5q69 0 142 -66q81 -73 122 -73q31 0 46 25.5t15 85.5v13 q0 11 12 11z" />
<glyph unicode="&#xa1;" horiz-adv-x="257" d="M169 420q0 -16 -13 -16h-55q-13 0 -13 12v98q0 12 14 12h37q13 0 17 -11q13 -39 13 -95zM153 -174h-49q-13 0 -13 12v173l9 323q0 13 14 13h29q14 0 14 -13l9 -323v-173q0 -12 -13 -12z" />
<glyph unicode="&#xa2;" horiz-adv-x="498" d="M261 524v80q0 12 13 12h27q13 0 13 -12v-78q67 -2 120 -16q11 -3 11 -14v-26q0 -13 -14 -10q-53 8 -117 10v-422q66 0 122 10q14 3 14 -10v-26q0 -11 -11 -14q-47 -14 -125 -16v-78q0 -12 -13 -12h-27q-13 0 -13 12v80q-104 10 -156 74.5t-52 171.5v37q0 108 52 172.5 t156 74.5zM119 273v-29q0 -171 142 -193v415q-142 -22 -142 -193z" />
<glyph unicode="&#xa3;" horiz-adv-x="578" d="M478 642q-65 10 -129 10h-10q-74 0 -107.5 -34t-33.5 -107v-118h194q13 0 13 -12v-32q0 -12 -13 -12h-194v-104q0 -109 -74 -173h408q13 0 13 -12v-36q0 -12 -13 -12h-476q-13 0 -13 12v32q0 10 8 18q40 37 58.5 74t18.5 88v113h-72q-13 0 -13 12v32q0 12 13 12h72v115 q0 103 55.5 153.5t157.5 50.5q78 0 140 -17q10 -3 10 -10v-34q0 -11 -13 -9z" />
<glyph unicode="&#xa4;" horiz-adv-x="698" d="M570 330q0 -77 -39 -133l74 -76q9 -11 -1 -20l-26 -27q-10 -10 -20 0l-73 74q-57 -43 -136 -43q-78 0 -137 43l-72 -74q-10 -10 -20 0l-26 27q-10 9 -1 20l74 76q-39 56 -39 133q0 75 39 133l-74 76q-9 11 1 20l26 27q10 10 20 0l72 -75q58 44 137 44t136 -44l73 75 q10 10 20 0l26 -27q10 -9 1 -20l-74 -76q39 -58 39 -133zM188 330q0 -72 45 -120.5t116 -48.5t116 48.5t45 120.5t-45 120.5t-116 48.5t-116 -48.5t-45 -120.5z" />
<glyph unicode="&#xa5;" horiz-adv-x="544" d="M237 136h-174q-13 0 -13 12v24q0 12 13 12h174v63l-2 3h-172q-13 0 -13 12v24q0 12 13 12h149l-187 388q-7 14 9 14h46q13 0 17 -10l175 -372l175 372q4 10 17 10h46q16 0 9 -14l-188 -388h150q13 0 13 -12v-24q0 -12 -13 -12h-173l-1 -3v-63h174q13 0 13 -12v-24 q0 -12 -13 -12h-174v-124q0 -12 -13 -12h-44q-13 0 -13 12v124z" />
<glyph unicode="&#xa6;" horiz-adv-x="286" d="M113 380v296q0 12 13 12h34q13 0 13 -12v-296q0 -12 -13 -12h-34q-13 0 -13 12zM113 -88v296q0 12 13 12h34q13 0 13 -12v-296q0 -12 -13 -12h-34q-13 0 -13 12z" />
<glyph unicode="&#xa7;" horiz-adv-x="471" d="M58 309q0 46 31 83.5t87 56.5q-117 54 -117 135q0 64 46 96.5t132 32.5q81 0 141 -17q11 -3 11 -13v-27q0 -13 -14 -10q-61 11 -139 11q-111 0 -111 -72q0 -27 17 -44.5t55 -35.5l90 -41q66 -30 98.5 -63.5t32.5 -85.5q0 -43 -31 -80t-86 -55l3 -1q113 -52 113 -141 q0 -65 -51.5 -101.5t-136.5 -36.5q-90 0 -161 17q-10 2 -10 11v30q0 11 13 10q90 -12 155 -12q56 0 90.5 21t34.5 60q0 57 -78 92l-107 48q-50 22 -79 56.5t-29 75.5zM254 413l-25 11q-53 -18 -79 -48.5t-26 -66.5q0 -49 71 -81l51 -23q54 18 80 47t26 63t-21.5 53t-76.5 45 z" />
<glyph unicode="&#xa8;" horiz-adv-x="386" d="M326 688q0 -45 -13 -84q-4 -11 -17 -11h-29q-14 0 -14 12v87q0 12 13 12h47q13 0 13 -16zM60 609q0 45 13 84q4 11 17 11h29q14 0 14 -12v-87q0 -12 -13 -12h-47q-13 0 -13 16z" />
<glyph unicode="&#xa9;" horiz-adv-x="838" d="M440 185q46 0 102 7q11 0 11 -7v-26q0 -7 -11 -10q-47 -14 -112 -14q-98 0 -148.5 54t-50.5 147v29q0 93 50.5 146.5t148.5 53.5q64 0 108 -14q11 -3 11 -11v-25q0 -7 -11 -7q-51 7 -98 7q-149 0 -149 -153v-23q0 -78 35.5 -116t113.5 -38zM56 350q0 150 106 256t257 106 t257 -106t106 -256t-106 -256t-257 -106t-257 106t-106 256zM106 350q0 -132 91.5 -225t221.5 -93t221.5 93t91.5 225t-91.5 225t-221.5 93t-221.5 -93t-91.5 -225z" />
<glyph unicode="&#xaa;" horiz-adv-x="436" d="M213 380q50 0 90 10v108q-43 8 -94 8q-53 0 -75 -15t-22 -49q0 -33 22.5 -47.5t78.5 -14.5zM94 693q50 15 107 15q89 0 125.5 -34t36.5 -109v-186q0 -25 -22 -32q-59 -17 -131 -17q-86 0 -122 27t-36 85q0 114 139 114q61 0 112 -17v14q0 62 -22.5 83t-89.5 21 q-40 0 -92 -8q-14 -2 -14 10v22q0 9 9 12z" />
<glyph unicode="&#xab;" horiz-adv-x="528" d="M73 302v20q0 8 6 14q70 70 174 143q8 6 13 -2l12 -17q4 -8 0 -12l-155 -136l155 -136q4 -4 0 -12l-12 -17q-5 -8 -13 -2q-104 73 -174 143q-6 6 -6 14zM257 302v20q0 8 6 14q70 70 174 143q8 6 13 -2l12 -17q4 -8 0 -12l-155 -136l155 -136q4 -4 0 -12l-12 -17 q-5 -8 -13 -2q-104 73 -174 143q-6 6 -6 14z" />
<glyph unicode="&#xac;" horiz-adv-x="618" d="M68 434h472q13 0 13 -12v-247q0 -12 -13 -12h-42q-13 0 -13 12v201h-417q-13 0 -13 12v34q0 12 13 12z" />
<glyph unicode="&#xad;" horiz-adv-x="432" d="M86 363h260q13 0 13 -12v-38q0 -12 -13 -12h-260q-13 0 -13 12v38q0 12 13 12z" />
<glyph unicode="&#xae;" horiz-adv-x="838" d="M56 350q0 150 106 256t257 106t257 -106t106 -256t-106 -256t-257 -106t-257 106t-106 256zM106 350q0 -133 91.5 -225.5t221.5 -92.5q129 0 221 93t92 225t-92 225t-221 93q-130 0 -221.5 -93t-91.5 -225zM411 566q152 0 152 -124v-18q0 -84 -71 -113l88 -155 q10 -16 -8 -16h-34q-12 0 -17 9l-86 151q-6 -1 -21 -1q-38 0 -73 4v-150q0 -13 -13 -13h-34q-13 0 -13 13v368q0 27 25 34q41 11 105 11zM341 511v-159q32 -3 61 -3q57 0 79 19t22 62v6q0 45 -22 62.5t-79 17.5q-36 0 -61 -5z" />
<glyph unicode="&#xaf;" horiz-adv-x="386" d="M66 676h253q13 0 13 -12v-30q0 -12 -13 -12h-253q-12 0 -12 12v30q0 12 12 12z" />
<glyph unicode="&#xb0;" horiz-adv-x="408" d="M70 575q0 69 37 103t97 34t97 -34t37 -103t-37 -103t-97 -34t-97 34t-37 103zM126 575q0 -89 78 -89t78 89t-78 89t-78 -89z" />
<glyph unicode="&#xb1;" horiz-adv-x="618" d="M343 366v-197q0 -12 -13 -12h-42q-13 0 -13 12v197h-192q-13 0 -13 12v34q0 12 13 12h192v197q0 12 13 12h42q13 0 13 -12v-197h192q13 0 13 -12v-34q0 -12 -13 -12h-192zM535 46h-452q-13 0 -13 12v34q0 12 13 12h452q13 0 13 -12v-34q0 -12 -13 -12z" />
<glyph unicode="&#xb2;" horiz-adv-x="388" d="M318 237h-267q-12 0 -12 11v31q0 60 31.5 98.5t104.5 85.5q50 32 73 58.5t23 61.5q0 38 -23 55.5t-82 17.5q-42 0 -92 -8q-13 -2 -13 12v24q0 9 10 12q41 12 102 12q85 0 121.5 -30.5t36.5 -94.5q0 -92 -124 -167q-58 -35 -81.5 -64t-25.5 -63h218q13 0 13 -11v-31 q0 -10 -13 -10z" />
<glyph unicode="&#xb3;" horiz-adv-x="388" d="M63 649q-13 -3 -13 9v25q0 10 11 13q39 12 100 12q80 0 121.5 -32t41.5 -93q0 -72 -64 -105q70 -31 70 -111q0 -138 -181 -138q-66 0 -102 12q-11 3 -11 12v25q0 12 13 10q39 -7 96 -7q125 0 125 85q0 45 -25.5 65t-80.5 20h-86q-13 0 -13 10v31q0 11 13 11h77 q109 0 109 79q0 39 -25.5 56.5t-80.5 17.5q-48 0 -95 -7z" />
<glyph unicode="&#xb4;" horiz-adv-x="386" d="M145 563q-11 -8 -22 -2l-17 11q-9 6 -1 16l123 147q8 10 18 3l34 -23q9 -7 1 -16q-60 -76 -136 -136z" />
<glyph unicode="&#xb5;" horiz-adv-x="590" d="M441 62v444q0 12 13 12h40q13 0 13 -12v-452q0 -31 -28 -40q-66 -22 -167 -22q-113 0 -163 49v-222q0 -12 -13 -12h-40q-13 0 -13 12v688q0 11 11 11h43q12 0 12 -11v-315q0 -78 37.5 -111t124.5 -33q77 0 130 14z" />
<glyph unicode="&#xb6;" horiz-adv-x="565" d="M469 -131h-36q-13 0 -13 12v761h-47v-761q0 -12 -13 -12h-36q-13 0 -13 12v386h-18q-99 0 -167 59t-68 159t62 157.5t161 57.5h188q13 0 13 -12v-807q0 -12 -13 -12z" />
<glyph unicode="&#xb7;" horiz-adv-x="254" d="M85 391q0 16 13 16h55q13 0 13 -12v-98q0 -12 -14 -12h-37q-13 0 -17 11q-13 39 -13 95z" />
<glyph unicode="&#xb8;" horiz-adv-x="386" d="M99 -217v20q0 9 11 7q22 -5 48 -5q64 0 64 45q0 52 -85 58q-22 2 -12 18q8 14 24.5 42t24.5 42h58l-40 -70q43 -8 66.5 -31.5t23.5 -58.5q0 -44 -29 -68.5t-77 -24.5q-39 0 -66 11q-11 4 -11 15z" />
<glyph unicode="&#xb9;" horiz-adv-x="388" d="M227 237h-35q-13 0 -13 12v400h-12q-23 0 -80 -5q-11 -2 -11 9v22q0 9 8 12q53 14 121 14h21q13 0 13 -12v-440q0 -12 -12 -12z" />
<glyph unicode="&#xba;" horiz-adv-x="436" d="M323 510v18q0 65 -25 97.5t-80 32.5t-80 -32.5t-25 -97.5v-18q0 -65 25 -97.5t80 -32.5t80 32.5t25 97.5zM383 531v-24q0 -87 -42.5 -132t-122.5 -45t-122.5 45t-42.5 132v24q0 87 42.5 132t122.5 45t122.5 -45t42.5 -132z" />
<glyph unicode="&#xbb;" horiz-adv-x="528" d="M455 322v-20q0 -8 -6 -14q-70 -70 -174 -143q-8 -6 -13 2l-12 17q-4 8 0 12l155 136l-155 136q-4 4 0 12l12 17q5 8 13 2q104 -73 174 -143q6 -6 6 -14zM271 322v-20q0 -8 -6 -14q-70 -70 -174 -143q-8 -6 -13 2l-12 17q-4 8 0 12l155 136l-155 136q-4 4 0 12l12 17 q5 8 13 2q104 -73 174 -143q6 -6 6 -14z" />
<glyph unicode="&#xbc;" horiz-adv-x="927" d="M227 237h-35q-13 0 -13 12v400h-12q-23 0 -80 -5q-11 -2 -11 9v22q0 9 8 12q53 14 121 14h21q13 0 13 -12v-440q0 -12 -12 -12zM243 -3l379 708q6 10 16 10h38q14 0 8 -12l-379 -708q-6 -10 -16 -10h-38q-14 0 -8 12zM687 453q5 11 20 11h33q17 0 9 -16 q-85 -163 -125 -300h148v143q0 12 13 12h35q12 0 12 -12v-143h50q13 0 13 -12v-29q0 -11 -13 -11h-50v-84q0 -11 -12 -11h-35q-13 0 -13 11v84h-200q-13 0 -13 11v26q0 13 4 24q48 148 124 296z" />
<glyph unicode="&#xbd;" horiz-adv-x="927" d="M243 -3l379 708q6 10 16 10h38q14 0 8 -12l-379 -708q-6 -10 -16 -10h-38q-14 0 -8 12zM862 1h-267q-12 0 -12 11v31q0 60 31.5 98.5t104.5 85.5q50 32 73 58.5t23 61.5q0 38 -23 55.5t-82 17.5q-42 0 -92 -8q-13 -2 -13 12v24q0 9 10 12q41 12 102 12q85 0 121.5 -30.5 t36.5 -94.5q0 -92 -124 -167q-58 -35 -81.5 -64t-25.5 -63h218q13 0 13 -11v-31q0 -10 -13 -10zM227 237h-35q-13 0 -13 12v400h-12q-23 0 -80 -5q-11 -2 -11 9v22q0 9 8 12q53 14 121 14h21q13 0 13 -12v-440q0 -12 -12 -12z" />
<glyph unicode="&#xbe;" horiz-adv-x="927" d="M243 -3l379 708q6 10 16 10h38q14 0 8 -12l-379 -708q-6 -10 -16 -10h-38q-14 0 -8 12zM687 453q5 11 20 11h33q17 0 9 -16q-85 -163 -125 -300h148v143q0 12 13 12h35q12 0 12 -12v-143h50q13 0 13 -12v-29q0 -11 -13 -11h-50v-84q0 -11 -12 -11h-35q-13 0 -13 11v84 h-200q-13 0 -13 11v26q0 13 4 24q48 148 124 296zM63 649q-13 -3 -13 9v25q0 10 11 13q39 12 100 12q80 0 121.5 -32t41.5 -93q0 -72 -64 -105q70 -31 70 -111q0 -138 -181 -138q-66 0 -102 12q-11 3 -11 12v25q0 12 13 10q39 -7 96 -7q125 0 125 85q0 45 -25.5 65t-80.5 20 h-86q-13 0 -13 10v31q0 11 13 11h77q109 0 109 79q0 39 -25.5 56.5t-80.5 17.5q-48 0 -95 -7z" />
<glyph unicode="&#xbf;" horiz-adv-x="482" d="M416 -125q13 2 13 -9v-34q0 -7 -10 -10q-53 -14 -137 -16q-209 0 -209 173q0 95 116 199q59 54 59 138v12q0 11 13 11h44q13 0 13 -11v-14q0 -109 -90 -185q-85 -71 -85 -148q0 -61 34 -88t109 -27q60 0 130 9zM324 412q0 -16 -13 -16h-55q-13 0 -13 12v98q0 12 14 12h37 q13 0 17 -11q13 -39 13 -95z" />
<glyph unicode="&#xc0;" horiz-adv-x="606" d="M271 700h64q18 0 24 -17l213 -670q5 -13 -10 -13h-47q-13 0 -16 9l-53 168h-287l-52 -168q-3 -9 -16 -9h-47q-15 0 -10 13l213 670q6 17 24 17zM303 637l-125 -400h250zM318 757q-76 60 -136 136q-8 9 1 16l34 23q10 7 18 -3l123 -147q8 -10 -1 -16l-17 -11q-11 -6 -22 2 z" />
<glyph unicode="&#xc1;" horiz-adv-x="606" d="M271 700h64q18 0 24 -17l213 -670q5 -13 -10 -13h-47q-13 0 -16 9l-53 168h-287l-52 -168q-3 -9 -16 -9h-47q-15 0 -10 13l213 670q6 17 24 17zM303 637l-125 -400h250zM288 757q-11 -8 -22 -2l-17 11q-9 6 -1 16l123 147q8 10 18 3l34 -23q9 -7 1 -16q-60 -76 -136 -136 z" />
<glyph unicode="&#xc2;" horiz-adv-x="606" d="M271 700h64q18 0 24 -17l213 -670q5 -13 -10 -13h-47q-13 0 -16 9l-53 168h-287l-52 -168q-3 -9 -16 -9h-47q-15 0 -10 13l213 670q6 17 24 17zM303 637l-125 -400h250zM289 924h28q13 0 24 -10q58 -51 114 -132q7 -10 -1 -16l-18 -12q-11 -7 -20 2l-113 117l-113 -117 q-9 -9 -20 -2l-18 12q-8 6 -1 16q56 81 114 132q11 10 24 10z" />
<glyph unicode="&#xc3;" horiz-adv-x="606" d="M271 700h64q18 0 24 -17l213 -670q5 -13 -10 -13h-47q-13 0 -16 9l-53 168h-287l-52 -168q-3 -9 -16 -9h-47q-15 0 -10 13l213 670q6 17 24 17zM303 637l-125 -400h250zM186 774h-23q-9 0 -14 10q-8 18 -8 43q0 42 22 64t61 22q49 0 93 -47q24 -25 37 -33.5t26 -8.5 q30 0 30 55q0 9 -2 21q-1 5 2 8t10 3h23q9 0 14 -10q8 -18 8 -43q0 -42 -22 -64t-61 -22q-49 0 -93 47q-24 25 -37 33.5t-26 8.5q-30 0 -30 -55q0 -9 2 -21q1 -5 -2 -8t-10 -3z" />
<glyph unicode="&#xc4;" horiz-adv-x="606" d="M271 700h64q18 0 24 -17l213 -670q5 -13 -10 -13h-47q-13 0 -16 9l-53 168h-287l-52 -168q-3 -9 -16 -9h-47q-15 0 -10 13l213 670q6 17 24 17zM303 637l-125 -400h250zM436 882q0 -45 -13 -84q-4 -11 -17 -11h-29q-14 0 -14 12v87q0 12 13 12h47q13 0 13 -16zM170 803 q0 45 13 84q4 11 17 11h29q14 0 14 -12v-87q0 -12 -13 -12h-47q-13 0 -13 16z" />
<glyph unicode="&#xc5;" horiz-adv-x="606" d="M271 700h64q18 0 24 -17l213 -670q5 -13 -10 -13h-47q-13 0 -16 9l-53 168h-287l-52 -168q-3 -9 -16 -9h-47q-15 0 -10 13l213 670q6 17 24 17zM303 637l-125 -400h250zM252 843q0 -59 51 -59t51 59t-51 59t-51 -59zM303 948q104 0 104 -105t-104 -105t-104 105t104 105z " />
<glyph unicode="&#xc6;" horiz-adv-x="862" d="M545 48h242q12 0 12 -12v-27q0 -10 -12 -12q-100 -9 -225 -9q-91 0 -119.5 31.5t-28.5 118.5v39h-231l-84 -168q-5 -9 -16 -9h-49q-16 0 -9 13l337 666q10 21 33 21h382q13 0 13 -12v-36q0 -12 -13 -12h-293v-256h272q13 0 13 -12v-36q0 -12 -13 -12h-272v-210 q0 -66 61 -66zM414 237v400l-201 -400h201z" />
<glyph unicode="&#xc7;" horiz-adv-x="555" d="M258 -217v20q0 9 11 7q22 -5 48 -5q64 0 64 45q0 52 -85 58q-22 2 -12 18l36 63q-257 13 -257 344v33q0 346 278 346q81 0 151 -17q10 -3 10 -10v-34q0 -11 -13 -9q-73 10 -138 10q-114 0 -166 -70t-52 -220v-25q0 -150 52.5 -219.5t168.5 -69.5q70 0 145 10q13 1 13 -10 v-34q0 -7 -10 -10q-56 -12 -123 -15l-28 -49q43 -8 66.5 -31.5t23.5 -58.5q0 -44 -29 -68.5t-77 -24.5q-39 0 -66 11q-11 4 -11 15z" />
<glyph unicode="&#xc8;" horiz-adv-x="562" d="M241 -12q-91 0 -119.5 31.5t-28.5 118.5v424q0 87 28.5 118.5t119.5 31.5q119 0 236 -8q12 -2 12 -13v-27q0 -12 -13 -12h-252q-61 0 -61 -66v-196h293q13 0 13 -12v-36q0 -12 -13 -12h-293v-216q0 -66 61 -66h263q12 0 12 -12v-28q0 -10 -12 -12q-89 -8 -246 -8z M335 757q-76 60 -136 136q-8 9 1 16l34 23q10 7 18 -3l123 -147q8 -10 -1 -16l-17 -11q-11 -6 -22 2z" />
<glyph unicode="&#xc9;" horiz-adv-x="562" d="M241 -12q-91 0 -119.5 31.5t-28.5 118.5v424q0 87 28.5 118.5t119.5 31.5q119 0 236 -8q12 -2 12 -13v-27q0 -12 -13 -12h-252q-61 0 -61 -66v-196h293q13 0 13 -12v-36q0 -12 -13 -12h-293v-216q0 -66 61 -66h263q12 0 12 -12v-28q0 -10 -12 -12q-89 -8 -246 -8z M285 757q-11 -8 -22 -2l-17 11q-9 6 -1 16l123 147q8 10 18 3l34 -23q9 -7 1 -16q-60 -76 -136 -136z" />
<glyph unicode="&#xca;" horiz-adv-x="562" d="M241 -12q-91 0 -119.5 31.5t-28.5 118.5v424q0 87 28.5 118.5t119.5 31.5q119 0 236 -8q12 -2 12 -13v-27q0 -12 -13 -12h-252q-61 0 -61 -66v-196h293q13 0 13 -12v-36q0 -12 -13 -12h-293v-216q0 -66 61 -66h263q12 0 12 -12v-28q0 -10 -12 -12q-89 -8 -246 -8z M281 924h28q13 0 24 -10q58 -51 114 -132q7 -10 -1 -16l-18 -12q-11 -7 -20 2l-113 117l-113 -117q-9 -9 -20 -2l-18 12q-8 6 -1 16q56 81 114 132q11 10 24 10z" />
<glyph unicode="&#xcb;" horiz-adv-x="562" d="M241 -12q-91 0 -119.5 31.5t-28.5 118.5v424q0 87 28.5 118.5t119.5 31.5q119 0 236 -8q12 -2 12 -13v-27q0 -12 -13 -12h-252q-61 0 -61 -66v-196h293q13 0 13 -12v-36q0 -12 -13 -12h-293v-216q0 -66 61 -66h263q12 0 12 -12v-28q0 -10 -12 -12q-89 -8 -246 -8z M433 882q0 -45 -13 -84q-4 -11 -17 -11h-29q-14 0 -14 12v87q0 12 13 12h47q13 0 13 -16zM167 803q0 45 13 84q4 11 17 11h29q14 0 14 -12v-87q0 -12 -13 -12h-47q-13 0 -13 16z" />
<glyph unicode="&#xcc;" horiz-adv-x="276" d="M103 12v676q0 12 13 12h44q13 0 13 -12v-676q0 -12 -13 -12h-44q-13 0 -13 12zM135 757q-76 60 -136 136q-8 9 1 16l34 23q10 7 18 -3l123 -147q8 -10 -1 -16l-17 -11q-11 -6 -22 2z" />
<glyph unicode="&#xcd;" horiz-adv-x="276" d="M103 12v676q0 12 13 12h44q13 0 13 -12v-676q0 -12 -13 -12h-44q-13 0 -13 12zM141 757q-11 -8 -22 -2l-17 11q-9 6 -1 16l123 147q8 10 18 3l34 -23q9 -7 1 -16q-60 -76 -136 -136z" />
<glyph unicode="&#xce;" horiz-adv-x="276" d="M103 12v676q0 12 13 12h44q13 0 13 -12v-676q0 -12 -13 -12h-44q-13 0 -13 12zM124 924h28q13 0 24 -10q58 -51 114 -132q7 -10 -1 -16l-18 -12q-11 -7 -20 2l-113 117l-113 -117q-9 -9 -20 -2l-18 12q-8 6 -1 16q56 81 114 132q11 10 24 10z" />
<glyph unicode="&#xcf;" horiz-adv-x="276" d="M103 12v676q0 12 13 12h44q13 0 13 -12v-676q0 -12 -13 -12h-44q-13 0 -13 12zM271 882q0 -45 -13 -84q-4 -11 -17 -11h-29q-14 0 -14 12v87q0 12 13 12h47q13 0 13 -16zM5 803q0 45 13 84q4 11 17 11h29q14 0 14 -12v-87q0 -12 -13 -12h-47q-13 0 -13 16z" />
<glyph unicode="&#xd0;" horiz-adv-x="656" d="M93 378v273q0 33 25 40q69 21 169 21q164 0 235 -86t71 -261v-30q0 -175 -71 -261t-235 -86q-100 0 -169 21q-25 7 -25 40v273h-72q-13 0 -13 12v32q0 12 13 12h72zM163 378h159q13 0 13 -12v-32q0 -12 -13 -12h-159v-261q54 -13 115 -13q137 0 191 69.5t54 220.5v24 q0 151 -54 220.5t-191 69.5q-61 0 -115 -13v-261z" />
<glyph unicode="&#xd1;" horiz-adv-x="679" d="M93 12v676q0 12 13 12h61q14 0 21 -12l328 -588v588q0 12 13 12h44q13 0 13 -12v-676q0 -12 -13 -12h-61q-14 0 -21 12l-328 588v-588q0 -12 -13 -12h-44q-13 0 -13 12zM222 774h-23q-9 0 -14 10q-8 18 -8 43q0 42 22 64t61 22q49 0 93 -47q24 -25 37 -33.5t26 -8.5 q30 0 30 55q0 9 -2 21q-1 5 2 8t10 3h23q9 0 14 -10q8 -18 8 -43q0 -42 -22 -64t-61 -22q-49 0 -93 47q-24 25 -37 33.5t-26 8.5q-30 0 -30 -55q0 -9 2 -21q1 -5 -2 -8t-10 -3z" />
<glyph unicode="&#xd2;" horiz-adv-x="680" d="M547 338v24q0 150 -51 220t-156 70t-156 -70t-51 -220v-24q0 -150 51 -220t156 -70t156 70t51 220zM617 365v-30q0 -347 -277 -347t-277 347v30q0 347 277 347t277 -347zM373 757q-76 60 -136 136q-8 9 1 16l34 23q10 7 18 -3l123 -147q8 -10 -1 -16l-17 -11 q-11 -6 -22 2z" />
<glyph unicode="&#xd3;" horiz-adv-x="680" d="M547 338v24q0 150 -51 220t-156 70t-156 -70t-51 -220v-24q0 -150 51 -220t156 -70t156 70t51 220zM617 365v-30q0 -347 -277 -347t-277 347v30q0 347 277 347t277 -347zM307 757q-11 -8 -22 -2l-17 11q-9 6 -1 16l123 147q8 10 18 3l34 -23q9 -7 1 -16 q-60 -76 -136 -136z" />
<glyph unicode="&#xd4;" horiz-adv-x="680" d="M547 338v24q0 150 -51 220t-156 70t-156 -70t-51 -220v-24q0 -150 51 -220t156 -70t156 70t51 220zM617 365v-30q0 -347 -277 -347t-277 347v30q0 347 277 347t277 -347zM326 924h28q13 0 24 -10q58 -51 114 -132q7 -10 -1 -16l-18 -12q-11 -7 -20 2l-113 117l-113 -117 q-9 -9 -20 -2l-18 12q-8 6 -1 16q56 81 114 132q11 10 24 10z" />
<glyph unicode="&#xd5;" horiz-adv-x="680" d="M547 338v24q0 150 -51 220t-156 70t-156 -70t-51 -220v-24q0 -150 51 -220t156 -70t156 70t51 220zM617 365v-30q0 -347 -277 -347t-277 347v30q0 347 277 347t277 -347zM223 774h-23q-9 0 -14 10q-8 18 -8 43q0 42 22 64t61 22q49 0 93 -47q24 -25 37 -33.5t26 -8.5 q30 0 30 55q0 9 -2 21q-1 5 2 8t10 3h23q9 0 14 -10q8 -18 8 -43q0 -42 -22 -64t-61 -22q-49 0 -93 47q-24 25 -37 33.5t-26 8.5q-30 0 -30 -55q0 -9 2 -21q1 -5 -2 -8t-10 -3z" />
<glyph unicode="&#xd6;" horiz-adv-x="680" d="M547 338v24q0 150 -51 220t-156 70t-156 -70t-51 -220v-24q0 -150 51 -220t156 -70t156 70t51 220zM617 365v-30q0 -347 -277 -347t-277 347v30q0 347 277 347t277 -347zM473 882q0 -45 -13 -84q-4 -11 -17 -11h-29q-14 0 -14 12v87q0 12 13 12h47q13 0 13 -16zM207 803 q0 45 13 84q4 11 17 11h29q14 0 14 -12v-87q0 -12 -13 -12h-47q-13 0 -13 16z" />
<glyph unicode="&#xd7;" horiz-adv-x="618" d="M101 165l164 168l-164 168q-9 9 0 17l27 26q9 9 18 0l163 -167l163 167q9 9 18 0l27 -26q9 -8 0 -17l-165 -168l165 -168q9 -9 0 -17l-27 -26q-9 -9 -18 0l-163 166l-163 -166q-9 -9 -18 0l-27 26q-9 8 0 17z" />
<glyph unicode="&#xd8;" horiz-adv-x="680" d="M493 674l66 116q7 10 18 10h40q12 0 6 -11l-86 -151q80 -86 80 -273v-30q0 -347 -277 -347q-92 0 -153 38l-66 -116q-7 -10 -18 -10h-40q-12 0 -6 11l86 151q-80 86 -80 273v30q0 347 277 347q91 0 153 -38zM547 338v24q0 143 -46 213l-282 -493q44 -34 121 -34 q105 0 156 70t51 220zM340 652q-105 0 -156 -70t-51 -220v-24q0 -143 46 -213l281 493q-46 34 -120 34z" />
<glyph unicode="&#xd9;" horiz-adv-x="686" d="M343 48q97 0 138.5 66t41.5 204v370q0 12 13 12h44q13 0 13 -12v-374q0 -169 -59 -247.5t-191 -78.5t-191 78.5t-59 247.5v374q0 12 13 12h44q13 0 13 -12v-370q0 -138 41.5 -204t138.5 -66zM361 757q-76 60 -136 136q-8 9 1 16l34 23q10 7 18 -3l123 -147q8 -10 -1 -16 l-17 -11q-11 -6 -22 2z" />
<glyph unicode="&#xda;" horiz-adv-x="686" d="M343 48q97 0 138.5 66t41.5 204v370q0 12 13 12h44q13 0 13 -12v-374q0 -169 -59 -247.5t-191 -78.5t-191 78.5t-59 247.5v374q0 12 13 12h44q13 0 13 -12v-370q0 -138 41.5 -204t138.5 -66zM325 757q-11 -8 -22 -2l-17 11q-9 6 -1 16l123 147q8 10 18 3l34 -23 q9 -7 1 -16q-60 -76 -136 -136z" />
<glyph unicode="&#xdb;" horiz-adv-x="686" d="M343 48q97 0 138.5 66t41.5 204v370q0 12 13 12h44q13 0 13 -12v-374q0 -169 -59 -247.5t-191 -78.5t-191 78.5t-59 247.5v374q0 12 13 12h44q13 0 13 -12v-370q0 -138 41.5 -204t138.5 -66zM329 924h28q13 0 24 -10q58 -51 114 -132q7 -10 -1 -16l-18 -12q-11 -7 -20 2 l-113 117l-113 -117q-9 -9 -20 -2l-18 12q-8 6 -1 16q56 81 114 132q11 10 24 10z" />
<glyph unicode="&#xdc;" horiz-adv-x="686" d="M343 48q97 0 138.5 66t41.5 204v370q0 12 13 12h44q13 0 13 -12v-374q0 -169 -59 -247.5t-191 -78.5t-191 78.5t-59 247.5v374q0 12 13 12h44q13 0 13 -12v-370q0 -138 41.5 -204t138.5 -66zM476 882q0 -45 -13 -84q-4 -11 -17 -11h-29q-14 0 -14 12v87q0 12 13 12h47 q13 0 13 -16zM210 803q0 45 13 84q4 11 17 11h29q14 0 14 -12v-87q0 -12 -13 -12h-47q-13 0 -13 16z" />
<glyph unicode="&#xdd;" horiz-adv-x="584" d="M97 690l195 -372l195 372q6 10 17 10h46q16 0 9 -14l-232 -439v-235q0 -12 -13 -12h-44q-13 0 -13 12v235l-232 439q-7 14 9 14h46q11 0 17 -10zM277 757q-11 -8 -22 -2l-17 11q-9 6 -1 16l123 147q8 10 18 3l34 -23q9 -7 1 -16q-60 -76 -136 -136z" />
<glyph unicode="&#xde;" horiz-adv-x="598" d="M545 362v-24q0 -104 -60.5 -155.5t-186.5 -51.5q-72 0 -135 9v-128q0 -12 -13 -12h-44q-13 0 -13 12v676q0 12 13 12h44q13 0 13 -12v-128q63 9 135 9q126 0 186.5 -51.5t60.5 -155.5zM475 348v4q0 82 -43.5 119.5t-149.5 37.5q-67 0 -119 -9v-300q52 -9 119 -9 q106 0 149.5 37.5t43.5 119.5z" />
<glyph unicode="&#xdf;" horiz-adv-x="563" d="M203 59q51 -11 118 -11q129 0 129 129q0 72 -44 109t-130 49q-14 2 -14 12v34q0 11 13 13q68 10 109 46.5t41 94.5q0 117 -137 117q-135 0 -135 -161v-479q0 -12 -13 -12h-44q-13 0 -13 12v473q0 227 207 227q99 0 152 -48t53 -128q0 -61 -28.5 -102.5t-91.5 -68.5 q145 -43 145 -188q0 -89 -49 -139t-141 -50q-74 0 -128 19q-11 3 -11 11v31q0 13 12 10z" />
<glyph unicode="&#xe0;" d="M455 12q-82 -20 -185 -20q-121 0 -171.5 38t-50.5 119q0 157 194 157q93 0 175 -28v30q0 94 -35 128t-140 34q-72 0 -132 -11q-14 -2 -14 9v28q0 8 9 11q68 19 153 19q124 0 174.5 -47.5t50.5 -152.5v-274q0 -33 -28 -40zM274 48q82 0 144 14h-1v173q-66 15 -148 15 q-83 0 -119 -23.5t-36 -77.5q0 -55 37 -78t123 -23zM306 583q-76 60 -136 136q-8 9 1 16l34 23q10 7 18 -3l123 -147q8 -10 -1 -16l-17 -11q-11 -6 -22 2z" />
<glyph unicode="&#xe1;" d="M455 12q-82 -20 -185 -20q-121 0 -171.5 38t-50.5 119q0 157 194 157q93 0 175 -28v30q0 94 -35 128t-140 34q-72 0 -132 -11q-14 -2 -14 9v28q0 8 9 11q68 19 153 19q124 0 174.5 -47.5t50.5 -152.5v-274q0 -33 -28 -40zM274 48q81 0 143 14v173q-66 15 -148 15 q-83 0 -119 -23.5t-36 -77.5q0 -55 37 -78t123 -23zM261 583q-11 -8 -22 -2l-17 11q-9 6 -1 16l123 147q8 10 18 3l34 -23q9 -7 1 -16q-60 -76 -136 -136z" />
<glyph unicode="&#xe2;" d="M455 12q-82 -20 -185 -20q-121 0 -171.5 38t-50.5 119q0 157 194 157q93 0 175 -28v30q0 94 -35 128t-140 34q-72 0 -132 -11q-14 -2 -14 9v28q0 8 9 11q68 19 153 19q124 0 174.5 -47.5t50.5 -152.5v-274q0 -33 -28 -40zM274 48q82 0 144 14h-1v173q-66 15 -148 15 q-83 0 -119 -23.5t-36 -77.5q0 -55 37 -78t123 -23zM272 750h28q13 0 24 -10q58 -51 114 -132q7 -10 -1 -16l-18 -12q-11 -7 -20 2l-113 117l-113 -117q-9 -9 -20 -2l-18 12q-8 6 -1 16q56 81 114 132q11 10 24 10z" />
<glyph unicode="&#xe3;" d="M455 12q-82 -20 -185 -20q-121 0 -171.5 38t-50.5 119q0 157 194 157q93 0 175 -28v30q0 94 -35 128t-140 34q-72 0 -132 -11q-14 -2 -14 9v28q0 8 9 11q68 19 153 19q124 0 174.5 -47.5t50.5 -152.5v-274q0 -33 -28 -40zM274 48q82 0 144 14h-1v173q-66 15 -148 15 q-83 0 -119 -23.5t-36 -77.5q0 -55 37 -78t123 -23zM169 600h-23q-9 0 -14 10q-8 18 -8 43q0 42 22 64t61 22q49 0 93 -47q24 -25 37 -33.5t26 -8.5q30 0 30 55q0 9 -2 21q-1 5 2 8t10 3h23q9 0 14 -10q8 -18 8 -43q0 -42 -22 -64t-61 -22q-49 0 -93 47q-24 25 -37 33.5 t-26 8.5q-30 0 -30 -55q0 -9 2 -21q1 -5 -2 -8t-10 -3z" />
<glyph unicode="&#xe4;" d="M455 12q-82 -20 -185 -20q-121 0 -171.5 38t-50.5 119q0 157 194 157q93 0 175 -28v30q0 94 -35 128t-140 34q-72 0 -132 -11q-14 -2 -14 9v28q0 8 9 11q68 19 153 19q124 0 174.5 -47.5t50.5 -152.5v-274q0 -33 -28 -40zM274 48q81 0 143 14v173q-66 15 -148 15 q-83 0 -119 -23.5t-36 -77.5q0 -55 37 -78t123 -23zM145 629q0 45 13 84q4 11 17 11h29q14 0 14 -12v-87q0 -12 -13 -12h-47q-13 0 -13 16zM411 708q0 -45 -13 -84q-4 -11 -17 -11h-29q-14 0 -14 12v87q0 12 13 12h47q13 0 13 -16z" />
<glyph unicode="&#xe5;" d="M455 12q-82 -20 -185 -20q-121 0 -171.5 38t-50.5 119q0 157 194 157q93 0 175 -28v30q0 94 -35 128t-140 34q-72 0 -132 -11q-14 -2 -14 9v28q0 8 9 11q68 19 153 19q124 0 174.5 -47.5t50.5 -152.5v-274q0 -33 -28 -40zM274 48q82 0 144 14h-1v173q-66 15 -148 15 q-83 0 -119 -23.5t-36 -77.5q0 -55 37 -78t123 -23zM236 669q0 -59 51 -59t51 59t-51 59t-51 -59zM287 774q104 0 104 -105t-104 -105t-104 105t104 105z" />
<glyph unicode="&#xe6;" horiz-adv-x="854" d="M263 48q69 0 119 14v175q-51 13 -124 13q-75 0 -107 -23t-32 -78t33.5 -78t110.5 -23zM446 273h239q27 0 38.5 10.5t11.5 36.5q0 73 -36.5 111.5t-102.5 38.5q-69 0 -108.5 -50t-41.5 -147zM754 61q14 3 14 -10v-27q0 -11 -11 -15q-44 -17 -129 -17q-60 0 -110.5 20.5 t-74.5 58.5v-22q0 -19 -23 -30q-54 -27 -161 -27q-110 0 -158 38t-48 119q0 77 46.5 117t130.5 40q85 0 152 -25v27q0 95 -32 128t-118 33q-59 0 -117 -11q-14 -2 -14 9v28q0 7 9 11q53 20 138 20q141 0 175 -93q57 93 173 93q97 0 151 -56t54 -149q0 -54 -29 -79t-91 -25 h-234q16 -169 186 -169q66 0 121 13z" />
<glyph unicode="&#xe7;" horiz-adv-x="498" d="M219 -217v20q0 9 11 7q22 -5 48 -5q64 0 64 45q0 52 -85 58q-22 2 -12 18l39 66q-114 4 -172.5 69.5t-58.5 178.5v37q0 117 62 183t184 66q77 0 135 -16q11 -3 11 -14v-26q0 -13 -14 -10q-57 10 -123 10q-189 0 -189 -197v-29q0 -99 46.5 -147.5t143.5 -48.5q70 0 127 10 q14 3 14 -10v-26q0 -11 -11 -14q-38 -12 -97 -15l-30 -53q43 -8 66.5 -31.5t23.5 -58.5q0 -44 -29 -68.5t-77 -24.5q-39 0 -66 11q-11 4 -11 15z" />
<glyph unicode="&#xe8;" horiz-adv-x="555" d="M120 273h264q28 0 40 10.5t12 36.5q0 74 -39.5 112t-112.5 38q-75 0 -118.5 -51.5t-45.5 -145.5zM457 9q-61 -17 -148 -17q-256 0 -256 263v22q0 117 61.5 183t169.5 66q105 0 161.5 -56t56.5 -149q0 -54 -30.5 -79t-94.5 -25h-256q9 -87 56 -128t140 -41q73 0 137 12 q14 3 14 -10v-27q0 -11 -11 -14zM302 583q-76 60 -136 136q-8 9 1 16l34 23q10 7 18 -3l123 -147q8 -10 -1 -16l-17 -11q-11 -6 -22 2z" />
<glyph unicode="&#xe9;" horiz-adv-x="555" d="M120 273h264q28 0 40 10.5t12 36.5q0 74 -39.5 112t-112.5 38q-75 0 -118.5 -51.5t-45.5 -145.5zM457 9q-61 -17 -148 -17q-256 0 -256 263v22q0 117 61.5 183t169.5 66q105 0 161.5 -56t56.5 -149q0 -54 -30.5 -79t-94.5 -25h-256q9 -87 56 -128t140 -41q73 0 137 12 q14 3 14 -10v-27q0 -11 -11 -14zM248 583q-11 -8 -22 -2l-17 11q-9 6 -1 16l123 147q8 10 18 3l34 -23q9 -7 1 -16q-60 -76 -136 -136z" />
<glyph unicode="&#xea;" horiz-adv-x="555" d="M120 273h264q28 0 40 10.5t12 36.5q0 74 -39.5 112t-112.5 38q-75 0 -118.5 -51.5t-45.5 -145.5zM457 9q-61 -17 -148 -17q-256 0 -256 263v22q0 117 61.5 183t169.5 66q105 0 161.5 -56t56.5 -149q0 -54 -30.5 -79t-94.5 -25h-256q9 -87 56 -128t140 -41q73 0 137 12 q14 3 14 -10v-27q0 -11 -11 -14zM265 750h28q13 0 24 -10q58 -51 114 -132q7 -10 -1 -16l-18 -12q-11 -7 -20 2l-113 117l-113 -117q-9 -9 -20 -2l-18 12q-8 6 -1 16q56 81 114 132q11 10 24 10z" />
<glyph unicode="&#xeb;" horiz-adv-x="555" d="M120 273h264q28 0 40 10.5t12 36.5q0 74 -39.5 112t-112.5 38q-75 0 -118.5 -51.5t-45.5 -145.5zM457 9q-61 -17 -148 -17q-256 0 -256 263v22q0 117 61.5 183t169.5 66q105 0 161.5 -56t56.5 -149q0 -54 -30.5 -79t-94.5 -25h-256q9 -87 56 -128t140 -41q73 0 137 12 q14 3 14 -10v-27q0 -11 -11 -14zM415 708q0 -45 -13 -84q-4 -11 -17 -11h-29q-14 0 -14 12v87q0 12 13 12h47q13 0 13 -16zM149 629q0 45 13 84q4 11 17 11h29q14 0 14 -12v-87q0 -12 -13 -12h-47q-13 0 -13 16z" />
<glyph unicode="&#xec;" horiz-adv-x="252" d="M93 12v494q0 12 13 12h40q13 0 13 -12v-494q0 -12 -13 -12h-40q-13 0 -13 12zM123 583q-76 60 -136 136q-8 9 1 16l34 23q10 7 18 -3l123 -147q8 -10 -1 -16l-17 -11q-11 -6 -22 2z" />
<glyph unicode="&#xed;" horiz-adv-x="252" d="M93 12v494q0 12 13 12h40q13 0 13 -12v-494q0 -12 -13 -12h-40q-13 0 -13 12zM129 583q-11 -8 -22 -2l-17 11q-9 6 -1 16l123 147q8 10 18 3l34 -23q9 -7 1 -16q-60 -76 -136 -136z" />
<glyph unicode="&#xee;" horiz-adv-x="252" d="M93 12v494q0 12 13 12h40q13 0 13 -12v-494q0 -12 -13 -12h-40q-13 0 -13 12zM112 750h28q13 0 24 -10q58 -51 114 -132q7 -10 -1 -16l-18 -12q-11 -7 -20 2l-113 117l-113 -117q-9 -9 -20 -2l-18 12q-8 6 -1 16q56 81 114 132q11 10 24 10z" />
<glyph unicode="&#xef;" horiz-adv-x="252" d="M93 12v494q0 12 13 12h40q13 0 13 -12v-494q0 -12 -13 -12h-40q-13 0 -13 12zM259 708q0 -45 -13 -84q-4 -11 -17 -11h-29q-14 0 -14 12v87q0 12 13 12h47q13 0 13 -16zM-7 629q0 45 13 84q4 11 17 11h29q14 0 14 -12v-87q0 -12 -13 -12h-47q-13 0 -13 16z" />
<glyph unicode="&#xf0;" horiz-adv-x="604" d="M437 677l80 42q11 6 17 -4l14 -26q5 -10 -6 -16l-75 -40q47 -90 47 -283q0 -182 -55.5 -270t-185.5 -88q-220 0 -220 249q0 119 59 186t176 67q85 0 154 -23q-6 86 -29 133l-124 -65q-11 -6 -17 4l-14 26q-6 11 6 17l117 62q-34 34 -103 34q-49 0 -109 -11q-14 -3 -14 10 v26q0 10 11 14q51 17 116 17q99 0 155 -61zM314 438q-195 0 -195 -191v-6q0 -193 154 -193q93 0 134 69.5t41 233.5q0 41 -3 77q-62 10 -131 10z" />
<glyph unicode="&#xf1;" horiz-adv-x="585" d="M149 456v-444q0 -12 -13 -12h-40q-13 0 -13 12v450q0 33 28 42q72 22 175 22q115 0 168 -46.5t53 -147.5v-320q0 -12 -12 -12h-41q-13 0 -13 12v317q0 77 -37.5 109t-125.5 32q-71 0 -129 -14zM168 600h-23q-9 0 -14 10q-8 18 -8 43q0 42 22 64t61 22q49 0 93 -47 q24 -25 37 -33.5t26 -8.5q30 0 30 55q0 9 -2 21q-1 5 2 8t10 3h23q9 0 14 -10q8 -18 8 -43q0 -42 -22 -64t-61 -22q-49 0 -93 47q-24 25 -37 33.5t-26 8.5q-30 0 -30 -55q0 -9 2 -21q1 -5 -2 -8t-10 -3z" />
<glyph unicode="&#xf2;" d="M513 276v-34q0 -120 -60 -185t-170 -65t-170 65t-60 185v34q0 120 60 185t170 65t170 -65t60 -185zM447 247v24q0 199 -164 199t-164 -199v-24q0 -199 164 -199t164 199zM310 583q-76 60 -136 136q-8 9 1 16l34 23q10 7 18 -3l123 -147q8 -10 -1 -16l-17 -11 q-11 -6 -22 2z" />
<glyph unicode="&#xf3;" d="M513 276v-34q0 -120 -60 -185t-170 -65t-170 65t-60 185v34q0 120 60 185t170 65t170 -65t60 -185zM447 247v24q0 199 -164 199t-164 -199v-24q0 -199 164 -199t164 199zM256 583q-11 -8 -22 -2l-17 11q-9 6 -1 16l123 147q8 10 18 3l34 -23q9 -7 1 -16 q-60 -76 -136 -136z" />
<glyph unicode="&#xf4;" d="M513 276v-34q0 -120 -60 -185t-170 -65t-170 65t-60 185v34q0 120 60 185t170 65t170 -65t60 -185zM447 247v24q0 199 -164 199t-164 -199v-24q0 -199 164 -199t164 199zM269 750h28q13 0 24 -10q58 -51 114 -132q7 -10 -1 -16l-18 -12q-11 -7 -20 2l-113 117l-113 -117 q-9 -9 -20 -2l-18 12q-8 6 -1 16q56 81 114 132q11 10 24 10z" />
<glyph unicode="&#xf5;" d="M513 276v-34q0 -120 -60 -185t-170 -65t-170 65t-60 185v34q0 120 60 185t170 65t170 -65t60 -185zM447 247v24q0 199 -164 199t-164 -199v-24q0 -199 164 -199t164 199zM166 600h-23q-9 0 -14 10q-8 18 -8 43q0 42 22 64t61 22q49 0 93 -47q24 -25 37 -33.5t26 -8.5 q30 0 30 55q0 9 -2 21q-1 5 2 8t10 3h23q9 0 14 -10q8 -18 8 -43q0 -42 -22 -64t-61 -22q-49 0 -93 47q-24 25 -37 33.5t-26 8.5q-30 0 -30 -55q0 -9 2 -21q1 -5 -2 -8t-10 -3z" />
<glyph unicode="&#xf6;" d="M513 276v-34q0 -120 -60 -185t-170 -65t-170 65t-60 185v34q0 120 60 185t170 65t170 -65t60 -185zM447 247v24q0 199 -164 199t-164 -199v-24q0 -199 164 -199t164 199zM416 708q0 -45 -13 -84q-4 -11 -17 -11h-29q-14 0 -14 12v87q0 12 13 12h47q13 0 13 -16zM150 629 q0 45 13 84q4 11 17 11h29q14 0 14 -12v-87q0 -12 -13 -12h-47q-13 0 -13 16z" />
<glyph unicode="&#xf7;" horiz-adv-x="618" d="M83 361h452q13 0 13 -12v-34q0 -12 -13 -12h-452q-13 0 -13 12v34q0 12 13 12zM270 177q0 16 13 16h55q13 0 13 -12v-98q0 -12 -14 -12h-37q-13 0 -17 11q-13 39 -13 95zM351 487q0 -16 -13 -16h-55q-13 0 -13 12v98q0 12 14 12h37q13 0 17 -11q13 -39 13 -95z" />
<glyph unicode="&#xf8;" d="M47 -98l80 141q-74 65 -74 199v34q0 120 60 185t170 65q61 0 108 -21l65 113q6 10 19 10h38q6 0 7.5 -4t-1.5 -8l-81 -141q75 -64 75 -199v-34q0 -120 -60 -185t-170 -65q-63 0 -109 21l-64 -113q-6 -10 -19 -10h-38q-6 0 -7.5 4t1.5 8zM447 247v24q0 98 -41 148 l-203 -355q32 -16 80 -16q164 0 164 199zM119 271v-24q0 -99 40 -148l203 355q-35 16 -79 16q-164 0 -164 -199z" />
<glyph unicode="&#xf9;" horiz-adv-x="590" d="M441 62v444q0 12 13 12h40q13 0 13 -12v-450q0 -33 -28 -42q-72 -22 -175 -22q-115 0 -168 46.5t-53 147.5v320q0 12 12 12h41q13 0 13 -12v-317q0 -77 37.5 -109t125.5 -32q71 0 129 14zM315 583q-76 60 -136 136q-8 9 1 16l34 23q10 7 18 -3l123 -147q8 -10 -1 -16 l-17 -11q-11 -6 -22 2z" />
<glyph unicode="&#xfa;" horiz-adv-x="590" d="M441 62v444q0 12 13 12h40q13 0 13 -12v-450q0 -33 -28 -42q-72 -22 -175 -22q-115 0 -168 46.5t-53 147.5v320q0 12 12 12h41q13 0 13 -12v-317q0 -77 37.5 -109t125.5 -32q71 0 129 14zM275 583q-11 -8 -22 -2l-17 11q-9 6 -1 16l123 147q8 10 18 3l34 -23q9 -7 1 -16 q-60 -76 -136 -136z" />
<glyph unicode="&#xfb;" horiz-adv-x="590" d="M441 62v444q0 12 13 12h40q13 0 13 -12v-450q0 -33 -28 -42q-72 -22 -175 -22q-115 0 -168 46.5t-53 147.5v320q0 12 12 12h41q13 0 13 -12v-317q0 -77 37.5 -109t125.5 -32q71 0 129 14zM281 750h28q13 0 24 -10q58 -51 114 -132q7 -10 -1 -16l-18 -12q-11 -7 -20 2 l-113 117l-113 -117q-9 -9 -20 -2l-18 12q-8 6 -1 16q56 81 114 132q11 10 24 10z" />
<glyph unicode="&#xfc;" horiz-adv-x="590" d="M441 62v444q0 12 13 12h40q13 0 13 -12v-450q0 -33 -28 -42q-72 -22 -175 -22q-115 0 -168 46.5t-53 147.5v320q0 12 12 12h41q13 0 13 -12v-317q0 -77 37.5 -109t125.5 -32q71 0 129 14zM428 708q0 -45 -13 -84q-4 -11 -17 -11h-29q-14 0 -14 12v87q0 12 13 12h47 q13 0 13 -16zM162 629q0 45 13 84q4 11 17 11h29q14 0 14 -12v-87q0 -12 -13 -12h-47q-13 0 -13 16z" />
<glyph unicode="&#xfd;" horiz-adv-x="590" d="M292 -200q-90 0 -156 17q-11 3 -11 15v26q0 13 14 10q65 -12 142 -12q92 0 126 33t34 112v22q-69 -23 -153 -23q-106 0 -155.5 50t-49.5 166v290q0 12 13 12h40q13 0 13 -12v-303q0 -80 37.5 -113.5t126.5 -33.5q77 0 128 9v441q0 12 13 12h40q13 0 13 -12v-513 q0 -102 -50 -147.5t-165 -45.5zM288 583q-11 -8 -22 -2l-17 11q-9 6 -1 16l123 147q8 10 18 3l34 -23q9 -7 1 -16q-60 -76 -136 -136z" />
<glyph unicode="&#xfe;" horiz-adv-x="579" d="M149 461v-399q45 -14 112 -14q97 0 148 52.5t51 155.5v23q0 101 -48.5 146t-145.5 45q-67 0 -117 -9zM149 5v-186q0 -12 -13 -12h-40q-13 0 -13 12v899q0 12 13 12h40q13 0 13 -12v-215q61 23 140 23q109 0 173 -60t64 -180v-37q0 -121 -65 -189t-194 -68q-63 0 -118 13z " />
<glyph unicode="&#xff;" horiz-adv-x="590" d="M292 -200q-90 0 -156 17q-11 3 -11 15v26q0 13 14 10q65 -12 142 -12q92 0 126 33t34 112v22q-69 -23 -153 -23q-106 0 -155.5 50t-49.5 166v290q0 12 13 12h40q13 0 13 -12v-303q0 -80 37.5 -113.5t126.5 -33.5q77 0 128 9v441q0 12 13 12h40q13 0 13 -12v-513 q0 -102 -50 -147.5t-165 -45.5zM428 708q0 -45 -13 -84q-4 -11 -17 -11h-29q-14 0 -14 12v87q0 12 13 12h47q13 0 13 -16zM162 629q0 45 13 84q4 11 17 11h29q14 0 14 -12v-87q0 -12 -13 -12h-47q-13 0 -13 16z" />
<glyph unicode="&#x100;" horiz-adv-x="606" d="M271 700h64q18 0 24 -17l213 -670q5 -13 -10 -13h-47q-13 0 -16 9l-53 168h-287l-52 -168q-3 -9 -16 -9h-47q-15 0 -10 13l213 670q6 17 24 17zM303 637l-125 -400h250zM176 870h253q13 0 13 -12v-30q0 -12 -13 -12h-253q-12 0 -12 12v30q0 12 12 12z" />
<glyph unicode="&#x101;" d="M455 12q-82 -20 -185 -20q-121 0 -171.5 38t-50.5 119q0 157 194 157q93 0 175 -28v30q0 94 -35 128t-140 34q-72 0 -132 -11q-14 -2 -14 9v28q0 8 9 11q68 19 153 19q124 0 174.5 -47.5t50.5 -152.5v-274q0 -33 -28 -40zM274 48q82 0 144 14h-1v173q-66 15 -148 15 q-83 0 -119 -23.5t-36 -77.5q0 -55 37 -78t123 -23zM156 696h253q13 0 13 -12v-30q0 -12 -13 -12h-253q-12 0 -12 12v30q0 12 12 12z" />
<glyph unicode="&#x102;" horiz-adv-x="606" d="M271 700h64q18 0 24 -17l213 -670q5 -13 -10 -13h-47q-13 0 -16 9l-53 168h-287l-52 -168q-3 -9 -16 -9h-47q-15 0 -10 13l213 670q6 17 24 17zM303 637l-125 -400h250zM303 765q-69 0 -110.5 38.5t-45.5 107.5q0 10 11 10h26q11 0 13 -12q16 -90 106 -90t106 90 q2 12 13 12h26q11 0 11 -10q-4 -69 -45.5 -107.5t-110.5 -38.5z" />
<glyph unicode="&#x103;" d="M455 12q-82 -20 -185 -20q-121 0 -171.5 38t-50.5 119q0 157 194 157q93 0 175 -28v30q0 94 -35 128t-140 34q-72 0 -132 -11q-14 -2 -14 9v28q0 8 9 11q68 19 153 19q124 0 174.5 -47.5t50.5 -152.5v-274q0 -33 -28 -40zM274 48q81 0 143 14v173q-66 15 -148 15 q-83 0 -119 -23.5t-36 -77.5q0 -55 37 -78t123 -23zM283 593q-69 0 -110.5 38.5t-45.5 107.5q0 10 11 10h26q11 0 13 -12q16 -90 106 -90t106 90q2 12 13 12h26q11 0 11 -10q-4 -69 -45.5 -107.5t-110.5 -38.5z" />
<glyph unicode="&#x104;" horiz-adv-x="606" d="M563 -166q17 0 35 6q13 3 13 -8v-20q0 -12 -9 -17q-18 -12 -56 -12q-46 0 -71 24t-25 69q0 72 66 124h-1q-13 0 -16 9l-53 168h-287l-52 -168q-3 -9 -16 -9h-47q-15 0 -10 13l213 670q6 17 24 17h64q18 0 24 -17l213 -670h8v-4q-68 -60 -68 -125q0 -50 51 -50zM303 637 l-125 -400h250z" />
<glyph unicode="&#x105;" d="M423 -166q17 0 35 6q13 3 13 -8v-20q0 -12 -9 -17q-18 -12 -56 -12q-46 0 -71 24t-25 69q0 69 64 122q-51 -6 -104 -6q-121 0 -171.5 38t-50.5 119q0 157 194 157q93 0 175 -28v30q0 94 -35 128t-140 34q-72 0 -132 -11q-14 -2 -14 9v28q0 8 9 11q68 19 153 19 q124 0 174.5 -47.5t50.5 -152.5v-274q0 -33 -28 -40q-2 0 -7.5 -2t-8.5 -2q-67 -58 -67 -124q0 -50 51 -50zM274 48q82 0 144 14h-1v173q-66 15 -148 15q-83 0 -119 -23.5t-36 -77.5q0 -55 37 -78t123 -23z" />
<glyph unicode="&#x106;" horiz-adv-x="555" d="M502 4q-70 -16 -159 -16q-280 0 -280 345v33q0 346 278 346q81 0 151 -17q10 -3 10 -10v-34q0 -11 -13 -9q-73 10 -138 10q-114 0 -166 -70t-52 -220v-25q0 -150 52.5 -219.5t168.5 -69.5q70 0 145 10q13 1 13 -10v-34q0 -7 -10 -10zM300 757q-11 -8 -22 -2l-17 11 q-9 6 -1 16l123 147q8 10 18 3l34 -23q9 -7 1 -16q-60 -76 -136 -136z" />
<glyph unicode="&#x107;" horiz-adv-x="498" d="M300 -8q-122 0 -184.5 65.5t-62.5 182.5v37q0 117 62 183t184 66q77 0 135 -16q11 -3 11 -14v-26q0 -13 -14 -10q-57 10 -123 10q-189 0 -189 -197v-29q0 -99 46.5 -147.5t143.5 -48.5q70 0 127 10q14 3 14 -10v-26q0 -11 -11 -14q-52 -16 -139 -16zM254 583 q-11 -8 -22 -2l-17 11q-9 6 -1 16l123 147q8 10 18 3l34 -23q9 -7 1 -16q-60 -76 -136 -136z" />
<glyph unicode="&#x10a;" horiz-adv-x="555" d="M502 4q-70 -16 -159 -16q-280 0 -280 345v33q0 346 278 346q81 0 151 -17q10 -3 10 -10v-34q0 -11 -13 -9q-73 10 -138 10q-114 0 -166 -70t-52 -220v-25q0 -150 52.5 -219.5t168.5 -69.5q70 0 145 10q13 1 13 -10v-34q0 -7 -10 -10zM361 882q0 -45 -13 -84 q-4 -11 -17 -11h-29q-14 0 -14 12v87q0 12 13 12h47q13 0 13 -16z" />
<glyph unicode="&#x10b;" horiz-adv-x="498" d="M300 -8q-122 0 -184.5 65.5t-62.5 182.5v37q0 117 62 183t184 66q77 0 135 -16q11 -3 11 -14v-26q0 -13 -14 -10q-57 10 -123 10q-189 0 -189 -197v-29q0 -99 46.5 -147.5t143.5 -48.5q70 0 127 10q14 3 14 -10v-26q0 -11 -11 -14q-52 -16 -139 -16zM337 708 q0 -45 -13 -84q-4 -11 -17 -11h-29q-14 0 -14 12v87q0 12 13 12h47q13 0 13 -16z" />
<glyph unicode="&#x10c;" horiz-adv-x="555" d="M502 4q-70 -16 -159 -16q-280 0 -280 345v33q0 346 278 346q81 0 151 -17q10 -3 10 -10v-34q0 -11 -13 -9q-73 10 -138 10q-114 0 -166 -70t-52 -220v-25q0 -150 52.5 -219.5t168.5 -69.5q70 0 145 10q13 1 13 -10v-34q0 -7 -10 -10zM339 762h-28q-13 0 -24 10 q-58 51 -114 132q-7 10 1 16l18 12q11 7 20 -2l113 -117l113 117q9 9 20 2l18 -12q8 -6 1 -16q-56 -81 -114 -132q-11 -10 -24 -10z" />
<glyph unicode="&#x10d;" horiz-adv-x="498" d="M300 -8q-122 0 -184.5 65.5t-62.5 182.5v37q0 117 62 183t184 66q77 0 135 -16q11 -3 11 -14v-26q0 -13 -14 -10q-57 10 -123 10q-189 0 -189 -197v-29q0 -99 46.5 -147.5t143.5 -48.5q70 0 127 10q14 3 14 -10v-26q0 -11 -11 -14q-52 -16 -139 -16zM288 588h-28 q-13 0 -24 10q-58 51 -114 132q-7 10 1 16l18 12q11 7 20 -2l113 -117l113 117q9 9 20 2l18 -12q8 -6 1 -16q-56 -81 -114 -132q-11 -10 -24 -10z" />
<glyph unicode="&#x10e;" horiz-adv-x="656" d="M163 639v-578q54 -13 115 -13q137 0 191 69.5t54 220.5v24q0 151 -54 220.5t-191 69.5q-61 0 -115 -13zM93 49v602q0 33 25 40q69 21 169 21q164 0 235 -86t71 -261v-30q0 -175 -71 -261t-235 -86q-100 0 -169 21q-25 7 -25 40zM333 762h-28q-13 0 -24 10 q-58 51 -114 132q-7 10 1 16l18 12q11 7 20 -2l113 -117l113 117q9 9 20 2l18 -12q8 -6 1 -16q-56 -81 -114 -132q-11 -10 -24 -10z" />
<glyph unicode="&#x10f;" horiz-adv-x="668" d="M290 526q79 0 140 -23v215q0 12 13 12h40q13 0 13 -12v-662q0 -32 -28 -42q-66 -22 -156 -22q-129 0 -194 68t-65 189v37q0 120 64 180t173 60zM430 63v398q-49 9 -117 9q-97 0 -145.5 -45t-48.5 -146v-23q0 -103 51 -155.5t148 -52.5q68 0 112 15zM567 503l-22 13 q-7 3 -2 11q31 56 31 111q0 4 -5 39q-5 30 -5 53q0 12 13 12h55q13 0 13 -12v-27q0 -109 -64 -198q-6 -7 -14 -2z" />
<glyph unicode="&#x110;" horiz-adv-x="656" d="M93 378v273q0 33 25 40q69 21 169 21q164 0 235 -86t71 -261v-30q0 -175 -71 -261t-235 -86q-100 0 -169 21q-25 7 -25 40v273h-72q-13 0 -13 12v32q0 12 13 12h72zM163 378h159q13 0 13 -12v-32q0 -12 -13 -12h-159v-261q54 -13 115 -13q137 0 191 69.5t54 220.5v24 q0 151 -54 220.5t-191 69.5q-61 0 -115 -13v-261z" />
<glyph unicode="&#x111;" horiz-adv-x="579" d="M496 653h59q13 0 13 -12v-28q0 -12 -13 -12h-59v-545q0 -32 -28 -42q-66 -22 -156 -22q-129 0 -194 68t-65 189v37q0 120 64 180t173 60q79 0 140 -23v98h-182q-13 0 -13 12v28q0 12 13 12h182v65q0 12 13 12h40q13 0 13 -12v-65zM430 63v398q-49 9 -117 9 q-97 0 -145.5 -45t-48.5 -146v-23q0 -103 51 -155.5t148 -52.5q68 0 112 15z" />
<glyph unicode="&#x112;" horiz-adv-x="562" d="M241 -12q-91 0 -119.5 31.5t-28.5 118.5v424q0 87 28.5 118.5t119.5 31.5q119 0 236 -8q12 -2 12 -13v-27q0 -12 -13 -12h-252q-61 0 -61 -66v-196h293q13 0 13 -12v-36q0 -12 -13 -12h-293v-216q0 -66 61 -66h263q12 0 12 -12v-28q0 -10 -12 -12q-89 -8 -246 -8z M178 870h253q13 0 13 -12v-30q0 -12 -13 -12h-253q-12 0 -12 12v30q0 12 12 12z" />
<glyph unicode="&#x113;" horiz-adv-x="555" d="M120 273h264q28 0 40 10.5t12 36.5q0 74 -39.5 112t-112.5 38q-75 0 -118.5 -51.5t-45.5 -145.5zM457 9q-61 -17 -148 -17q-256 0 -256 263v22q0 117 61.5 183t169.5 66q105 0 161.5 -56t56.5 -149q0 -54 -30.5 -79t-94.5 -25h-256q9 -87 56 -128t140 -41q73 0 137 12 q14 3 14 -10v-27q0 -11 -11 -14zM153 696h253q13 0 13 -12v-30q0 -12 -13 -12h-253q-12 0 -12 12v30q0 12 12 12z" />
<glyph unicode="&#x114;" horiz-adv-x="562" d="M241 -12q-91 0 -119.5 31.5t-28.5 118.5v424q0 87 28.5 118.5t119.5 31.5q119 0 236 -8q12 -2 12 -13v-27q0 -12 -13 -12h-252q-61 0 -61 -66v-196h293q13 0 13 -12v-36q0 -12 -13 -12h-293v-216q0 -66 61 -66h263q12 0 12 -12v-28q0 -10 -12 -12q-89 -8 -246 -8z M301 765q-69 0 -110.5 38.5t-45.5 107.5q0 10 11 10h26q11 0 13 -12q16 -90 106 -90t106 90q2 12 13 12h26q11 0 11 -10q-4 -69 -45.5 -107.5t-110.5 -38.5z" />
<glyph unicode="&#x115;" horiz-adv-x="555" d="M120 273h264q28 0 40 10.5t12 36.5q0 74 -39.5 112t-112.5 38q-75 0 -118.5 -51.5t-45.5 -145.5zM457 9q-61 -17 -148 -17q-256 0 -256 263v22q0 117 61.5 183t169.5 66q105 0 161.5 -56t56.5 -149q0 -54 -30.5 -79t-94.5 -25h-256q9 -87 56 -128t140 -41q73 0 137 12 q14 3 14 -10v-27q0 -11 -11 -14zM286 593q-69 0 -110.5 38.5t-45.5 107.5q0 10 11 10h26q11 0 13 -12q16 -90 106 -90t106 90q2 12 13 12h26q11 0 11 -10q-4 -69 -45.5 -107.5t-110.5 -38.5z" />
<glyph unicode="&#x116;" horiz-adv-x="562" d="M241 -12q-91 0 -119.5 31.5t-28.5 118.5v424q0 87 28.5 118.5t119.5 31.5q119 0 236 -8q12 -2 12 -13v-27q0 -12 -13 -12h-252q-61 0 -61 -66v-196h293q13 0 13 -12v-36q0 -12 -13 -12h-293v-216q0 -66 61 -66h263q12 0 12 -12v-28q0 -10 -12 -12q-89 -8 -246 -8z M345 882q0 -45 -13 -84q-4 -11 -17 -11h-29q-14 0 -14 12v87q0 12 13 12h47q13 0 13 -16z" />
<glyph unicode="&#x117;" horiz-adv-x="555" d="M120 273h264q28 0 40 10.5t12 36.5q0 74 -39.5 112t-112.5 38q-75 0 -118.5 -51.5t-45.5 -145.5zM457 9q-61 -17 -148 -17q-256 0 -256 263v22q0 117 61.5 183t169.5 66q105 0 161.5 -56t56.5 -149q0 -54 -30.5 -79t-94.5 -25h-256q9 -87 56 -128t140 -41q73 0 137 12 q14 3 14 -10v-27q0 -11 -11 -14zM325 708q0 -45 -13 -84q-4 -11 -17 -11h-29q-14 0 -14 12v87q0 12 13 12h47q13 0 13 -16z" />
<glyph unicode="&#x118;" horiz-adv-x="562" d="M456 -166q17 0 35 6q13 3 13 -8v-20q0 -12 -9 -17q-18 -12 -56 -12q-46 0 -71 24t-25 69q0 65 54 114q-50 -2 -156 -2q-91 0 -119.5 31.5t-28.5 118.5v424q0 87 28.5 118.5t119.5 31.5q119 0 236 -8q12 -2 12 -13v-27q0 -12 -13 -12h-252q-61 0 -61 -66v-196h293 q13 0 13 -12v-36q0 -12 -13 -12h-293v-216q0 -66 61 -66h263q12 0 12 -12v-28q0 -10 -12 -12q-20 -2 -31 -2q-51 -54 -51 -110q0 -50 51 -50z" />
<glyph unicode="&#x119;" horiz-adv-x="555" d="M371 -166q17 0 35 6q13 3 13 -8v-20q0 -12 -9 -17q-18 -12 -56 -12q-46 0 -71 24t-25 69q0 65 57 116h-6q-256 0 -256 263v22q0 117 61.5 183t169.5 66q105 0 161.5 -56t56.5 -149q0 -54 -30.5 -79t-94.5 -25h-256q9 -87 56 -128t140 -41q73 0 137 12q14 3 14 -10v-27 q0 -11 -11 -14q-41 -11 -85 -14q-52 -53 -52 -111q0 -50 51 -50zM120 273h264q28 0 40 10.5t12 36.5q0 74 -39.5 112t-112.5 38q-75 0 -118.5 -51.5t-45.5 -145.5z" />
<glyph unicode="&#x11a;" horiz-adv-x="562" d="M241 -12q-91 0 -119.5 31.5t-28.5 118.5v424q0 87 28.5 118.5t119.5 31.5q119 0 236 -8q12 -2 12 -13v-27q0 -12 -13 -12h-252q-61 0 -61 -66v-196h293q13 0 13 -12v-36q0 -12 -13 -12h-293v-216q0 -66 61 -66h263q12 0 12 -12v-28q0 -10 -12 -12q-89 -8 -246 -8z M318 762h-28q-13 0 -24 10q-58 51 -114 132q-7 10 1 16l18 12q11 7 20 -2l113 -117l113 117q9 9 20 2l18 -12q8 -6 1 -16q-56 -81 -114 -132q-11 -10 -24 -10z" />
<glyph unicode="&#x11b;" horiz-adv-x="555" d="M120 273h264q28 0 40 10.5t12 36.5q0 74 -39.5 112t-112.5 38q-75 0 -118.5 -51.5t-45.5 -145.5zM457 9q-61 -17 -148 -17q-256 0 -256 263v22q0 117 61.5 183t169.5 66q105 0 161.5 -56t56.5 -149q0 -54 -30.5 -79t-94.5 -25h-256q9 -87 56 -128t140 -41q73 0 137 12 q14 3 14 -10v-27q0 -11 -11 -14zM300 588h-28q-13 0 -24 10q-58 51 -114 132q-7 10 1 16l18 12q11 7 20 -2l113 -117l113 117q9 9 20 2l18 -12q8 -6 1 -16q-56 -81 -114 -132q-11 -10 -24 -10z" />
<glyph unicode="&#x11e;" horiz-adv-x="653" d="M500 60v255h-169q-12 0 -12 12v36q0 12 12 12h226q13 0 13 -12v-314q0 -30 -26 -39q-70 -22 -185 -22q-162 0 -229 88t-67 258v32q0 173 68.5 259.5t229.5 86.5q93 0 176 -18q10 -1 10 -10v-34q0 -10 -13 -9q-82 11 -165 11q-134 0 -185 -68t-51 -222v-25 q0 -149 49.5 -219t181.5 -70q78 0 136 12zM346 765q-69 0 -110.5 38.5t-45.5 107.5q0 10 11 10h26q11 0 13 -12q16 -90 106 -90t106 90q2 12 13 12h26q11 0 11 -10q-4 -69 -45.5 -107.5t-110.5 -38.5z" />
<glyph unicode="&#x11f;" horiz-adv-x="579" d="M430 1v22q-61 -23 -140 -23q-109 0 -173 60t-64 180v29q0 121 65 189t194 68q90 0 156 -22q28 -10 28 -42v-469q0 -102 -50 -147.5t-165 -45.5q-90 0 -156 17q-11 3 -11 15v26q0 13 14 10q64 -12 142 -12q92 0 126 34.5t34 110.5zM430 65v390q-43 15 -112 15 q-97 0 -148 -52.5t-51 -155.5v-15q0 -101 48.5 -146t145.5 -45q68 0 117 9zM296 593q-69 0 -110.5 38.5t-45.5 107.5q0 10 11 10h26q11 0 13 -12q16 -90 106 -90t106 90q2 12 13 12h26q11 0 11 -10q-4 -69 -45.5 -107.5t-110.5 -38.5z" />
<glyph unicode="&#x120;" horiz-adv-x="653" d="M500 60v255h-169q-12 0 -12 12v36q0 12 12 12h226q13 0 13 -12v-314q0 -30 -26 -39q-70 -22 -185 -22q-162 0 -229 88t-67 258v32q0 173 68.5 259.5t229.5 86.5q93 0 176 -18q10 -1 10 -10v-34q0 -10 -13 -9q-82 11 -165 11q-134 0 -185 -68t-51 -222v-25 q0 -149 49.5 -219t181.5 -70q78 0 136 12zM383 882q0 -45 -13 -84q-4 -11 -17 -11h-29q-14 0 -14 12v87q0 12 13 12h47q13 0 13 -16z" />
<glyph unicode="&#x121;" horiz-adv-x="579" d="M430 1v22q-61 -23 -140 -23q-109 0 -173 60t-64 180v29q0 121 65 189t194 68q90 0 156 -22q28 -10 28 -42v-469q0 -102 -50 -147.5t-165 -45.5q-90 0 -156 17q-11 3 -11 15v26q0 13 14 10q64 -12 142 -12q92 0 126 34.5t34 110.5zM430 65v390q-43 15 -112 15 q-97 0 -148 -52.5t-51 -155.5v-15q0 -101 48.5 -146t145.5 -45q68 0 117 9zM337 708q0 -45 -13 -84q-4 -11 -17 -11h-29q-14 0 -14 12v87q0 12 13 12h47q13 0 13 -16z" />
<glyph unicode="&#x122;" horiz-adv-x="653" d="M500 60v255h-169q-12 0 -12 12v36q0 12 12 12h226q13 0 13 -12v-314q0 -30 -26 -39q-70 -22 -185 -22q-162 0 -229 88t-67 258v32q0 173 68.5 259.5t229.5 86.5q93 0 176 -18q10 -1 10 -10v-34q0 -10 -13 -9q-82 11 -165 11q-134 0 -185 -68t-51 -222v-25 q0 -149 49.5 -219t181.5 -70q78 0 136 12zM320 -251l-6 3q-25 12 -25 17q0 1 2 5q30 52 30 93q0 16 -4 46q-4 24 -4 34q0 11 13 11h54q12 0 12 -11v-26q0 -104 -60 -171q-3 -3 -7 -3q-1 0 -5 2z" />
<glyph unicode="&#x123;" horiz-adv-x="579" d="M430 1v22q-61 -23 -140 -23q-109 0 -173 60t-64 180v29q0 121 65 189t194 68q90 0 156 -22q28 -10 28 -42v-469q0 -102 -50 -147.5t-165 -45.5q-90 0 -156 17q-11 3 -11 15v26q0 13 14 10q64 -12 142 -12q92 0 126 34.5t34 110.5zM430 65v390q-43 15 -112 15 q-97 0 -148 -52.5t-51 -155.5v-15q0 -101 48.5 -146t145.5 -45q68 0 117 9zM336 788l6 -3q25 -13 25 -17q0 -1 -2 -5q-30 -52 -30 -93q0 -16 4 -46q4 -24 4 -34q0 -11 -13 -11h-54q-12 0 -12 11v26q0 104 60 171q3 3 7 3q1 0 5 -2z" />
<glyph unicode="&#x126;" horiz-adv-x="674" d="M94 542h-53q-13 0 -13 12v30q0 12 13 12h53v92q0 12 13 12h44q13 0 13 -12v-92h338v92q0 12 13 12h44q13 0 13 -12v-92h61q13 0 13 -12v-30q0 -12 -13 -12h-61v-530q0 -12 -13 -12h-44q-13 0 -13 12v318h-338v-318q0 -12 -13 -12h-44q-13 0 -13 12v530zM164 390h338v152 h-338v-152z" />
<glyph unicode="&#x127;" horiz-adv-x="585" d="M149 653h182q13 0 13 -12v-28q0 -12 -13 -12h-182v-99q69 24 152 24q104 0 155 -47t51 -147v-320q0 -12 -13 -12h-40q-13 0 -13 12v315q0 76 -36 109.5t-124 33.5q-73 0 -132 -9v-449q0 -12 -13 -12h-40q-13 0 -13 12v589h-59q-13 0 -13 12v28q0 12 13 12h59v65 q0 12 13 12h40q13 0 13 -12v-65z" />
<glyph unicode="&#x128;" horiz-adv-x="276" d="M103 12v676q0 12 13 12h44q13 0 13 -12v-676q0 -12 -13 -12h-44q-13 0 -13 12zM21 774h-23q-9 0 -14 10q-8 18 -8 43q0 42 22 64t61 22q49 0 93 -47q24 -25 37 -33.5t26 -8.5q30 0 30 55q0 9 -2 21q-1 5 2 8t10 3h23q9 0 14 -10q8 -18 8 -43q0 -42 -22 -64t-61 -22 q-49 0 -93 47q-24 25 -37 33.5t-26 8.5q-30 0 -30 -55q0 -9 2 -21q1 -5 -2 -8t-10 -3z" />
<glyph unicode="&#x129;" horiz-adv-x="252" d="M93 12v494q0 12 13 12h40q13 0 13 -12v-494q0 -12 -13 -12h-40q-13 0 -13 12zM9 600h-23q-9 0 -14 10q-8 18 -8 43q0 42 22 64t61 22q49 0 93 -47q24 -25 37 -33.5t26 -8.5q30 0 30 55q0 9 -2 21q-1 5 2 8t10 3h23q9 0 14 -10q8 -18 8 -43q0 -42 -22 -64t-61 -22 q-49 0 -93 47q-24 25 -37 33.5t-26 8.5q-30 0 -30 -55q0 -9 2 -21q1 -5 -2 -8t-10 -3z" />
<glyph unicode="&#x12a;" horiz-adv-x="276" d="M103 12v676q0 12 13 12h44q13 0 13 -12v-676q0 -12 -13 -12h-44q-13 0 -13 12zM11 870h253q13 0 13 -12v-30q0 -12 -13 -12h-253q-12 0 -12 12v30q0 12 12 12z" />
<glyph unicode="&#x12b;" horiz-adv-x="252" d="M93 12v494q0 12 13 12h40q13 0 13 -12v-494q0 -12 -13 -12h-40q-13 0 -13 12zM-1 696h253q13 0 13 -12v-30q0 -12 -13 -12h-253q-12 0 -12 12v30q0 12 12 12z" />
<glyph unicode="&#x12c;" horiz-adv-x="276" d="M103 12v676q0 12 13 12h44q13 0 13 -12v-676q0 -12 -13 -12h-44q-13 0 -13 12zM138 765q-69 0 -110.5 38.5t-45.5 107.5q0 10 11 10h26q11 0 13 -12q16 -90 106 -90t106 90q2 12 13 12h26q11 0 11 -10q-4 -69 -45.5 -107.5t-110.5 -38.5z" />
<glyph unicode="&#x12d;" horiz-adv-x="252" d="M93 12v494q0 12 13 12h40q13 0 13 -12v-494q0 -12 -13 -12h-40q-13 0 -13 12zM126 593q-69 0 -110.5 38.5t-45.5 107.5q0 10 11 10h26q11 0 13 -12q16 -90 106 -90t106 90q2 12 13 12h26q11 0 11 -10q-4 -69 -45.5 -107.5t-110.5 -38.5z" />
<glyph unicode="&#x12e;" horiz-adv-x="276" d="M154 -166q17 0 35 6q13 3 13 -8v-20q0 -12 -9 -17q-18 -12 -56 -12q-46 0 -71 24t-25 69q0 72 67 125q-5 1 -5 11v676q0 12 13 12h44q13 0 13 -12v-676q0 -12 -12 -12q-58 -55 -58 -116q0 -50 51 -50z" />
<glyph unicode="&#x12f;" horiz-adv-x="252" d="M141 -166q17 0 35 6q13 3 13 -8v-20q0 -12 -9 -17q-18 -12 -56 -12q-46 0 -71 24t-25 69q0 74 69 126q-4 3 -4 10v494q0 12 13 12h40q13 0 13 -12v-494q0 -12 -11 -12q-58 -55 -58 -116q0 -50 51 -50zM165 703q0 -46 -12 -85q-4 -14 -17 -14h-30q-13 0 -13 12v87 q0 12 13 12h46q13 0 13 -12z" />
<glyph unicode="&#x130;" horiz-adv-x="276" d="M103 12v676q0 12 13 12h44q13 0 13 -12v-676q0 -12 -13 -12h-44q-13 0 -13 12zM176 882q0 -45 -13 -84q-4 -11 -17 -11h-29q-14 0 -14 12v87q0 12 13 12h47q13 0 13 -16z" />
<glyph unicode="&#x131;" horiz-adv-x="252" d="M93 12v494q0 12 13 12h40q13 0 13 -12v-494q0 -12 -13 -12h-40q-13 0 -13 12z" />
<glyph unicode="&#x136;" horiz-adv-x="592" d="M482 700h57q7 0 8.5 -4t-2.5 -8l-304 -325l335 -351q4 -4 2 -8t-9 -4h-62q-12 0 -18 6l-326 348v-342q0 -12 -13 -12h-44q-13 0 -13 12v676q0 12 13 12h44q13 0 13 -12v-316l300 321q7 7 19 7zM279 -251l-6 3q-25 12 -25 17q0 1 2 5q30 52 30 93q0 16 -4 46q-4 24 -4 34 q0 11 13 11h54q12 0 12 -11v-26q0 -104 -60 -171q-3 -3 -7 -3q-1 0 -5 2z" />
<glyph unicode="&#x137;" horiz-adv-x="526" d="M477 502l-249 -229l280 -257q6 -5 4.5 -10.5t-10.5 -5.5h-55q-12 0 -22 10l-276 255v-253q0 -12 -13 -12h-40q-13 0 -13 12v706q0 12 13 12h40q13 0 13 -12v-437l250 230q7 7 19 7h52q10 0 11.5 -5t-4.5 -11zM245 -251l-6 3q-25 12 -25 17q0 1 2 5q30 52 30 93 q0 16 -4 46q-4 24 -4 34q0 11 13 11h54q12 0 12 -11v-26q0 -104 -60 -171q-3 -3 -7 -3q-1 0 -5 2z" />
<glyph unicode="&#x139;" horiz-adv-x="522" d="M93 117v571q0 12 13 12h44q13 0 13 -12v-576q0 -64 61 -64h272q13 0 13 -12v-28q0 -10 -12 -12q-104 -8 -259 -8q-84 0 -114.5 28.5t-30.5 100.5zM136 757q-11 -8 -22 -2l-17 11q-9 6 -1 16l123 147q8 10 18 3l34 -23q9 -7 1 -16q-60 -76 -136 -136z" />
<glyph unicode="&#x13a;" horiz-adv-x="300" d="M277 2q-31 -10 -73 -10q-58 0 -84.5 31.5t-26.5 94.5v600q0 12 13 12h40q13 0 13 -12v-594q0 -43 15.5 -59.5t51.5 -16.5q27 0 50 5q12 2 12 -11v-25q0 -11 -11 -15zM134 757q-11 -8 -22 -2l-17 11q-9 6 -1 16l123 147q8 10 18 3l34 -23q9 -7 1 -16q-60 -76 -136 -136z " />
<glyph unicode="&#x13b;" horiz-adv-x="522" d="M93 117v571q0 12 13 12h44q13 0 13 -12v-576q0 -64 61 -64h272q13 0 13 -12v-28q0 -10 -12 -12q-104 -8 -259 -8q-84 0 -114.5 28.5t-30.5 100.5zM288 -251l-6 3q-25 12 -25 17q0 1 2 5q30 52 30 93q0 16 -4 46q-4 24 -4 34q0 11 13 11h54q12 0 12 -11v-26 q0 -104 -60 -171q-3 -3 -7 -3q-1 0 -5 2z" />
<glyph unicode="&#x13c;" horiz-adv-x="300" d="M277 2q-31 -10 -73 -10q-58 0 -84.5 31.5t-26.5 94.5v600q0 12 13 12h40q13 0 13 -12v-594q0 -43 15.5 -59.5t51.5 -16.5q27 0 50 5q12 2 12 -11v-25q0 -11 -11 -15zM154 -251l-6 3q-25 12 -25 17q0 1 2 5q30 52 30 93q0 16 -4 46q-4 24 -4 34q0 11 13 11h54q12 0 12 -11 v-26q0 -104 -60 -171q-3 -3 -7 -3q-1 0 -5 2z" />
<glyph unicode="&#x13d;" horiz-adv-x="522" d="M93 117v571q0 12 13 12h44q13 0 13 -12v-576q0 -64 61 -64h272q13 0 13 -12v-28q0 -10 -12 -12q-104 -8 -259 -8q-84 0 -114.5 28.5t-30.5 100.5zM376 498l-22 13q-7 3 -2 11q31 56 31 111q0 4 -5 39q-5 30 -5 53q0 12 13 12h55q13 0 13 -12v-27q0 -109 -64 -198 q-6 -7 -14 -2z" />
<glyph unicode="&#x13e;" horiz-adv-x="368" d="M277 2q-31 -10 -73 -10q-58 0 -84.5 31.5t-26.5 94.5v600q0 12 13 12h40q13 0 13 -12v-594q0 -43 15.5 -59.5t51.5 -16.5q27 0 50 5q12 2 12 -11v-25q0 -11 -11 -15zM267 498l-22 13q-7 3 -2 11q31 56 31 111q0 4 -5 39q-5 30 -5 53q0 12 13 12h55q13 0 13 -12v-27 q0 -109 -64 -198q-6 -7 -14 -2z" />
<glyph unicode="&#x13f;" horiz-adv-x="522" d="M93 117v571q0 12 13 12h44q13 0 13 -12v-576q0 -64 61 -64h272q13 0 13 -12v-28q0 -10 -12 -12q-104 -8 -259 -8q-84 0 -114.5 28.5t-30.5 100.5zM426 418q0 -45 -13 -84q-4 -11 -17 -11h-29q-14 0 -14 12v87q0 12 13 12h47q13 0 13 -16z" />
<glyph unicode="&#x140;" horiz-adv-x="377" d="M277 2q-31 -10 -73 -10q-58 0 -84.5 31.5t-26.5 94.5v600q0 12 13 12h40q13 0 13 -12v-594q0 -43 15.5 -59.5t51.5 -16.5q27 0 50 5q12 2 12 -11v-25q0 -11 -11 -15zM364 418q0 -45 -13 -84q-4 -11 -17 -11h-29q-14 0 -14 12v87q0 12 13 12h47q13 0 13 -16z" />
<glyph unicode="&#x141;" horiz-adv-x="522" d="M163 385l241 160q10 6 16 -4l21 -30q6 -10 -4 -16l-274 -181v-202q0 -64 61 -64h272q13 0 13 -12v-28q0 -10 -12 -12q-104 -8 -259 -8q-84 0 -114.5 28.5t-30.5 100.5v150l-79 -52q-10 -6 -16 4l-21 30q-6 10 4 16l112 74v349q0 12 13 12h44q13 0 13 -12v-303z" />
<glyph unicode="&#x142;" horiz-adv-x="367" d="M203 440l131 88q10 6 16 -4l21 -30q6 -10 -4 -16l-164 -110v-244q0 -43 15.5 -59.5t51.5 -16.5q27 0 50 5q12 2 12 -11v-25q0 -11 -11 -15q-31 -10 -73 -10q-58 0 -84.5 31.5t-26.5 94.5v205l-104 -69q-10 -6 -16 4l-21 30q-6 10 4 16l137 92v322q0 12 13 12h40 q13 0 13 -12v-278z" />
<glyph unicode="&#x143;" horiz-adv-x="679" d="M93 12v676q0 12 13 12h61q14 0 21 -12l328 -588v588q0 12 13 12h44q13 0 13 -12v-676q0 -12 -13 -12h-61q-14 0 -21 12l-328 588v-588q0 -12 -13 -12h-44q-13 0 -13 12zM319 757q-11 -8 -22 -2l-17 11q-9 6 -1 16l123 147q8 10 18 3l34 -23q9 -7 1 -16q-60 -76 -136 -136 z" />
<glyph unicode="&#x144;" horiz-adv-x="585" d="M149 456v-444q0 -12 -13 -12h-40q-13 0 -13 12v450q0 33 28 42q72 22 175 22q115 0 168 -46.5t53 -147.5v-320q0 -12 -12 -12h-41q-13 0 -13 12v317q0 77 -37.5 109t-125.5 32q-71 0 -129 -14zM258 583q-11 -8 -22 -2l-17 11q-9 6 -1 16l123 147q8 10 18 3l34 -23 q9 -7 1 -16q-60 -76 -136 -136z" />
<glyph unicode="&#x145;" horiz-adv-x="679" d="M93 12v676q0 12 13 12h61q14 0 21 -12l328 -588v588q0 12 13 12h44q13 0 13 -12v-676q0 -12 -13 -12h-61q-14 0 -21 12l-328 588v-588q0 -12 -13 -12h-44q-13 0 -13 12zM323 -251l-6 3q-25 12 -25 17q0 1 2 5q30 52 30 93q0 16 -4 46q-4 24 -4 34q0 11 13 11h54 q12 0 12 -11v-26q0 -104 -60 -171q-3 -3 -7 -3q-1 0 -5 2z" />
<glyph unicode="&#x146;" horiz-adv-x="585" d="M149 456v-444q0 -12 -13 -12h-40q-13 0 -13 12v450q0 33 28 42q72 22 175 22q115 0 168 -46.5t53 -147.5v-320q0 -12 -12 -12h-41q-13 0 -13 12v317q0 77 -37.5 109t-125.5 32q-71 0 -129 -14zM265 -251l-6 3q-25 12 -25 17q0 1 2 5q30 52 30 93q0 16 -4 46q-4 24 -4 34 q0 11 13 11h54q12 0 12 -11v-26q0 -104 -60 -171q-3 -3 -7 -3q-1 0 -5 2z" />
<glyph unicode="&#x147;" horiz-adv-x="679" d="M93 12v676q0 12 13 12h61q14 0 21 -12l328 -588v588q0 12 13 12h44q13 0 13 -12v-676q0 -12 -13 -12h-61q-14 0 -21 12l-328 588v-588q0 -12 -13 -12h-44q-13 0 -13 12zM356 762h-28q-13 0 -24 10q-58 51 -114 132q-7 10 1 16l18 12q11 7 20 -2l113 -117l113 117 q9 9 20 2l18 -12q8 -6 1 -16q-56 -81 -114 -132q-11 -10 -24 -10z" />
<glyph unicode="&#x148;" horiz-adv-x="585" d="M149 456v-444q0 -12 -13 -12h-40q-13 0 -13 12v450q0 33 28 42q72 22 175 22q115 0 168 -46.5t53 -147.5v-320q0 -12 -12 -12h-41q-13 0 -13 12v317q0 77 -37.5 109t-125.5 32q-71 0 -129 -14zM300 588h-28q-13 0 -24 10q-58 51 -114 132q-7 10 1 16l18 12q11 7 20 -2 l113 -117l113 117q9 9 20 2l18 -12q8 -6 1 -16q-56 -81 -114 -132q-11 -10 -24 -10z" />
<glyph unicode="&#x14c;" horiz-adv-x="680" d="M547 338v24q0 150 -51 220t-156 70t-156 -70t-51 -220v-24q0 -150 51 -220t156 -70t156 70t51 220zM617 365v-30q0 -347 -277 -347t-277 347v30q0 347 277 347t277 -347zM213 870h253q13 0 13 -12v-30q0 -12 -13 -12h-253q-12 0 -12 12v30q0 12 12 12z" />
<glyph unicode="&#x14d;" d="M513 276v-34q0 -120 -60 -185t-170 -65t-170 65t-60 185v34q0 120 60 185t170 65t170 -65t60 -185zM447 247v24q0 199 -164 199t-164 -199v-24q0 -199 164 -199t164 199zM156 696h253q13 0 13 -12v-30q0 -12 -13 -12h-253q-12 0 -12 12v30q0 12 12 12z" />
<glyph unicode="&#x14e;" horiz-adv-x="680" d="M547 338v24q0 150 -51 220t-156 70t-156 -70t-51 -220v-24q0 -150 51 -220t156 -70t156 70t51 220zM617 365v-30q0 -347 -277 -347t-277 347v30q0 347 277 347t277 -347zM340 765q-69 0 -110.5 38.5t-45.5 107.5q0 10 11 10h26q11 0 13 -12q16 -90 106 -90t106 90 q2 12 13 12h26q11 0 11 -10q-4 -69 -45.5 -107.5t-110.5 -38.5z" />
<glyph unicode="&#x14f;" d="M513 276v-34q0 -120 -60 -185t-170 -65t-170 65t-60 185v34q0 120 60 185t170 65t170 -65t60 -185zM447 247v24q0 199 -164 199t-164 -199v-24q0 -199 164 -199t164 199zM283 593q-69 0 -110.5 38.5t-45.5 107.5q0 10 11 10h26q11 0 13 -12q16 -90 106 -90t106 90 q2 12 13 12h26q11 0 11 -10q-4 -69 -45.5 -107.5t-110.5 -38.5z" />
<glyph unicode="&#x150;" horiz-adv-x="680" d="M547 338v24q0 150 -51 220t-156 70t-156 -70t-51 -220v-24q0 -150 51 -220t156 -70t156 70t51 220zM617 365v-30q0 -347 -277 -347t-277 347v30q0 347 277 347t277 -347zM402 757q-11 -8 -22 -2l-17 11q-9 6 -1 16l123 147q8 10 18 3l34 -23q9 -7 1 -16 q-60 -76 -136 -136zM211 783q44 79 100 146q10 11 22 2l31 -21q9 -7 1 -16l-114 -136q-9 -11 -24 -2l-15 10q-7 6 -1 17z" />
<glyph unicode="&#x151;" d="M513 276v-34q0 -120 -60 -185t-170 -65t-170 65t-60 185v34q0 120 60 185t170 65t170 -65t60 -185zM447 247v24q0 199 -164 199t-164 -199v-24q0 -199 164 -199t164 199zM341 583q-11 -8 -22 -2l-17 11q-9 6 -1 16l123 147q8 10 18 3l34 -23q9 -7 1 -16 q-60 -76 -136 -136zM150 609q44 79 100 146q10 11 22 2l31 -21q9 -7 1 -16l-114 -136q-9 -11 -24 -2l-15 10q-7 6 -1 17z" />
<glyph unicode="&#x152;" horiz-adv-x="863" d="M348 -12q-150 0 -217.5 88.5t-67.5 256.5v33q0 166 66.5 250t216.5 84h432q13 0 13 -12v-36q0 -12 -13 -12h-293v-256h272q13 0 13 -12v-36q0 -12 -13 -12h-272v-210q0 -66 61 -66h242q12 0 12 -12v-27q0 -10 -12 -12q-100 -9 -225 -9q-61 0 -95 14q-59 -14 -120 -14z M415 138v503h-65q-119 0 -168 -65.5t-49 -213.5v-25q0 -151 51.5 -220t174.5 -69q44 0 66 3q-10 28 -10 87z" />
<glyph unicode="&#x153;" horiz-adv-x="900" d="M275 48q82 0 116.5 50t34.5 148v28q0 96 -35 146t-116 50q-82 0 -119 -51t-37 -148v-24q0 -97 37 -148t119 -51zM275 -8q-106 0 -164 64t-58 186v34q0 122 58 186t164 64q139 0 186 -104q56 104 181 104q98 0 151.5 -56t53.5 -149q0 -55 -28 -79.5t-89 -24.5h-236 q13 -169 185 -169q66 0 121 13q14 3 14 -10v-27q0 -11 -11 -15q-44 -17 -132 -17q-151 0 -209 103q-49 -103 -187 -103zM492 272h242q26 0 36.5 10.5t10.5 37.5q0 73 -36 111.5t-103 38.5q-70 0 -110 -45.5t-40 -136.5v-16z" />
<glyph unicode="&#x154;" horiz-adv-x="621" d="M296 712q127 0 185.5 -51.5t58.5 -152.5v-26q0 -150 -127 -189l153 -281q6 -12 -8 -12h-49q-15 0 -21 10l-147 270q-26 -2 -44 -2q-78 0 -134 8v-274q0 -12 -13 -12h-44q-13 0 -13 12v639q0 32 25 39q80 22 178 22zM163 639v-293q48 -8 117 -8q105 0 147.5 37t42.5 116v8 q0 80 -43 116.5t-147 36.5q-58 0 -117 -13zM279 757q-11 -8 -22 -2l-17 11q-9 6 -1 16l123 147q8 10 18 3l34 -23q9 -7 1 -16q-60 -76 -136 -136z" />
<glyph unicode="&#x155;" horiz-adv-x="397" d="M360 461q-39 7 -93 7q-63 0 -118 -15v-441q0 -12 -13 -12h-40q-13 0 -13 12v450q0 35 28 42q77 22 158 22q62 0 94 -4q11 -1 11 -14v-37q0 -13 -14 -10zM184 583q-11 -8 -22 -2l-17 11q-9 6 -1 16l123 147q8 10 18 3l34 -23q9 -7 1 -16q-60 -76 -136 -136z" />
<glyph unicode="&#x156;" horiz-adv-x="621" d="M296 712q127 0 185.5 -51.5t58.5 -152.5v-26q0 -150 -127 -189l153 -281q6 -12 -8 -12h-49q-15 0 -21 10l-147 270q-26 -2 -44 -2q-78 0 -134 8v-274q0 -12 -13 -12h-44q-13 0 -13 12v639q0 32 25 39q80 22 178 22zM163 639v-293q48 -8 117 -8q105 0 147.5 37t42.5 116v8 q0 80 -43 116.5t-147 36.5q-58 0 -117 -13zM296 -251l-6 3q-25 12 -25 17q0 1 2 5q30 52 30 93q0 16 -4 46q-4 24 -4 34q0 11 13 11h54q12 0 12 -11v-26q0 -104 -60 -171q-3 -3 -7 -3q-1 0 -5 2z" />
<glyph unicode="&#x157;" horiz-adv-x="397" d="M360 461q-39 7 -93 7q-63 0 -118 -15v-441q0 -12 -13 -12h-40q-13 0 -13 12v450q0 35 28 42q77 22 158 22q62 0 94 -4q11 -1 11 -14v-37q0 -13 -14 -10zM87 -251l-6 3q-25 12 -25 17q0 1 2 5q30 52 30 93q0 16 -4 46q-4 24 -4 34q0 11 13 11h54q12 0 12 -11v-26 q0 -104 -60 -171q-3 -3 -7 -3q-1 0 -5 2z" />
<glyph unicode="&#x158;" horiz-adv-x="621" d="M296 712q127 0 185.5 -51.5t58.5 -152.5v-26q0 -150 -127 -189l153 -281q6 -12 -8 -12h-49q-15 0 -21 10l-147 270q-26 -2 -44 -2q-78 0 -134 8v-274q0 -12 -13 -12h-44q-13 0 -13 12v639q0 32 25 39q80 22 178 22zM163 639v-293q48 -8 117 -8q105 0 147.5 37t42.5 116v8 q0 80 -43 116.5t-147 36.5q-58 0 -117 -13zM299 762h-28q-13 0 -24 10q-58 51 -114 132q-7 10 1 16l18 12q11 7 20 -2l113 -117l113 117q9 9 20 2l18 -12q8 -6 1 -16q-56 -81 -114 -132q-11 -10 -24 -10z" />
<glyph unicode="&#x159;" horiz-adv-x="397" d="M360 461q-39 7 -93 7q-63 0 -118 -15v-441q0 -12 -13 -12h-40q-13 0 -13 12v450q0 35 28 42q77 22 158 22q62 0 94 -4q11 -1 11 -14v-37q0 -13 -14 -10zM237 588h-28q-13 0 -24 10q-58 51 -114 132q-7 10 1 16l18 12q11 7 20 -2l113 -117l113 117q9 9 20 2l18 -12 q8 -6 1 -16q-56 -81 -114 -132q-11 -10 -24 -10z" />
<glyph unicode="&#x15a;" horiz-adv-x="536" d="M70 5q-10 1 -10 10v34q0 11 13 10q85 -11 172 -11q91 0 129.5 28t38.5 88q0 48 -21 79.5t-69 53.5l-152 70q-113 52 -113 173q0 87 52.5 129.5t165.5 42.5q81 0 163 -17q10 -2 10 -10v-34q0 -11 -13 -9q-80 10 -155 10q-82 0 -117.5 -26t-35.5 -87q0 -81 89 -122l153 -71 q113 -53 113 -183q0 -87 -54.5 -131t-176.5 -44q-99 0 -182 17zM253 757q-11 -8 -22 -2l-17 11q-9 6 -1 16l123 147q8 10 18 3l34 -23q9 -7 1 -16q-60 -76 -136 -136z" />
<glyph unicode="&#x15b;" horiz-adv-x="466" d="M229 -8q-96 0 -161 17q-10 2 -10 11v30q0 11 13 10q77 -12 155 -12q121 0 121 81q0 62 -71 92l-109 45q-109 45 -109 131q0 129 171 129q74 0 144 -17q11 -3 11 -11v-29q0 -13 -13 -10q-63 11 -138 11q-56 0 -82.5 -17t-26.5 -55q0 -52 71 -80l109 -45q109 -46 109 -143 q0 -68 -49 -103t-135 -35zM225 583q-11 -8 -22 -2l-17 11q-9 6 -1 16l123 147q8 10 18 3l34 -23q9 -7 1 -16q-60 -76 -136 -136z" />
<glyph unicode="&#x15e;" horiz-adv-x="536" d="M184 -217v20q0 9 11 7q22 -5 48 -5q64 0 64 45q0 52 -85 58q-22 2 -12 18q24 42 36 62q-96 2 -176 17q-10 1 -10 10v34q0 11 13 10q85 -11 172 -11q91 0 129.5 28t38.5 88q0 48 -21 79.5t-69 53.5l-152 70q-113 52 -113 173q0 87 52.5 129.5t165.5 42.5q81 0 163 -17 q10 -2 10 -10v-34q0 -11 -13 -9q-80 10 -155 10q-82 0 -117.5 -26t-35.5 -87q0 -81 89 -122l153 -71q113 -53 113 -183q0 -77 -42 -120t-135 -52l-29 -51q43 -8 66.5 -31.5t23.5 -58.5q0 -44 -29 -68.5t-77 -24.5q-39 0 -66 11q-11 4 -11 15z" />
<glyph unicode="&#x15f;" horiz-adv-x="466" d="M148 -217v20q0 9 11 7q22 -5 48 -5q64 0 64 45q0 52 -85 58q-22 2 -12 18q5 10 11.5 21t15 24.5t12.5 20.5q-88 2 -145 17q-10 2 -10 11v30q0 11 13 10q77 -12 155 -12q121 0 121 81q0 62 -71 92l-109 45q-109 45 -109 131q0 129 171 129q74 0 144 -17q11 -3 11 -11v-29 q0 -13 -13 -10q-63 11 -138 11q-56 0 -82.5 -17t-26.5 -55q0 -52 71 -80l109 -45q109 -46 109 -143q0 -59 -37 -93t-104 -42l-31 -55q43 -8 66.5 -31.5t23.5 -58.5q0 -44 -29 -68.5t-77 -24.5q-39 0 -66 11q-11 4 -11 15z" />
<glyph unicode="&#x160;" horiz-adv-x="536" d="M70 5q-10 1 -10 10v34q0 11 13 10q85 -11 172 -11q91 0 129.5 28t38.5 88q0 48 -21 79.5t-69 53.5l-152 70q-113 52 -113 173q0 87 52.5 129.5t165.5 42.5q81 0 163 -17q10 -2 10 -10v-34q0 -11 -13 -9q-80 10 -155 10q-82 0 -117.5 -26t-35.5 -87q0 -81 89 -122l153 -71 q113 -53 113 -183q0 -87 -54.5 -131t-176.5 -44q-99 0 -182 17zM285 762h-28q-13 0 -24 10q-58 51 -114 132q-7 10 1 16l18 12q11 7 20 -2l113 -117l113 117q9 9 20 2l18 -12q8 -6 1 -16q-56 -81 -114 -132q-11 -10 -24 -10z" />
<glyph unicode="&#x161;" horiz-adv-x="466" d="M229 -8q-96 0 -161 17q-10 2 -10 11v30q0 11 13 10q77 -12 155 -12q121 0 121 81q0 62 -71 92l-109 45q-109 45 -109 131q0 129 171 129q74 0 144 -17q11 -3 11 -11v-29q0 -13 -13 -10q-63 11 -138 11q-56 0 -82.5 -17t-26.5 -55q0 -52 71 -80l109 -45q109 -46 109 -143 q0 -68 -49 -103t-135 -35zM252 588h-28q-13 0 -24 10q-58 51 -114 132q-7 10 1 16l18 12q11 7 20 -2l113 -117l113 117q9 9 20 2l18 -12q8 -6 1 -16q-56 -81 -114 -132q-11 -10 -24 -10z" />
<glyph unicode="&#x162;" horiz-adv-x="520" d="M159 -217v20q0 9 11 7q22 -5 48 -5q64 0 64 45q0 52 -85 58q-22 2 -12 18q8 14 23 40t21 36q-4 3 -4 10v628h-194q-13 0 -13 12v36q0 12 13 12h458q13 0 13 -12v-36q0 -12 -13 -12h-194v-628q0 -10 -9 -12l-34 -60q43 -8 66.5 -31.5t23.5 -58.5q0 -44 -29 -68.5 t-77 -24.5q-39 0 -66 11q-11 4 -11 15z" />
<glyph unicode="&#x163;" horiz-adv-x="407" d="M149 -217v20q0 9 11 7q22 -5 48 -5q64 0 64 45q0 52 -85 58q-22 2 -12 18q14 25 42 73q-83 24 -83 154v309h-93q-13 0 -13 12v32q0 12 13 12h93v126q0 12 13 12h40q13 0 13 -12v-126h144q13 0 13 -12v-32q0 -12 -13 -12h-144v-323q0 -47 18 -69t61 -22q34 0 76 5 q12 2 12 -11v-25q0 -12 -10 -15q-29 -10 -85 -10h-1l-29 -52q43 -8 66.5 -31.5t23.5 -58.5q0 -44 -29 -68.5t-77 -24.5q-39 0 -66 11q-11 4 -11 15z" />
<glyph unicode="&#x164;" horiz-adv-x="520" d="M225 12v628h-194q-13 0 -13 12v36q0 12 13 12h458q13 0 13 -12v-36q0 -12 -13 -12h-194v-628q0 -12 -13 -12h-44q-13 0 -13 12zM274 762h-28q-13 0 -24 10q-58 51 -114 132q-7 10 1 16l18 12q11 7 20 -2l113 -117l113 117q9 9 20 2l18 -12q8 -6 1 -16q-56 -81 -114 -132 q-11 -10 -24 -10z" />
<glyph unicode="&#x165;" horiz-adv-x="505" d="M357 2q-29 -10 -85 -10q-74 0 -106 39.5t-32 121.5v309h-93q-13 0 -13 12v32q0 12 13 12h93v126q0 12 13 12h40q13 0 13 -12v-126h144q13 0 13 -12v-32q0 -12 -13 -12h-144v-323q0 -47 18 -69t61 -22q34 0 76 5q12 2 12 -11v-25q0 -12 -10 -15zM404 498l-22 13 q-7 3 -2 11q31 56 31 111q0 4 -5 39q-5 30 -5 53q0 12 13 12h55q13 0 13 -12v-27q0 -109 -64 -198q-6 -7 -14 -2z" />
<glyph unicode="&#x16a;" horiz-adv-x="686" d="M343 48q97 0 138.5 66t41.5 204v370q0 12 13 12h44q13 0 13 -12v-374q0 -169 -59 -247.5t-191 -78.5t-191 78.5t-59 247.5v374q0 12 13 12h44q13 0 13 -12v-370q0 -138 41.5 -204t138.5 -66zM216 870h253q13 0 13 -12v-30q0 -12 -13 -12h-253q-12 0 -12 12v30q0 12 12 12 z" />
<glyph unicode="&#x16b;" horiz-adv-x="590" d="M441 62v444q0 12 13 12h40q13 0 13 -12v-450q0 -33 -28 -42q-72 -22 -175 -22q-115 0 -168 46.5t-53 147.5v320q0 12 12 12h41q13 0 13 -12v-317q0 -77 37.5 -109t125.5 -32q71 0 129 14zM168 696h253q13 0 13 -12v-30q0 -12 -13 -12h-253q-12 0 -12 12v30q0 12 12 12z " />
<glyph unicode="&#x16c;" horiz-adv-x="686" d="M343 48q97 0 138.5 66t41.5 204v370q0 12 13 12h44q13 0 13 -12v-374q0 -169 -59 -247.5t-191 -78.5t-191 78.5t-59 247.5v374q0 12 13 12h44q13 0 13 -12v-370q0 -138 41.5 -204t138.5 -66zM343 765q-69 0 -110.5 38.5t-45.5 107.5q0 10 11 10h26q11 0 13 -12 q16 -90 106 -90t106 90q2 12 13 12h26q11 0 11 -10q-4 -69 -45.5 -107.5t-110.5 -38.5z" />
<glyph unicode="&#x16d;" horiz-adv-x="590" d="M441 62v444q0 12 13 12h40q13 0 13 -12v-450q0 -33 -28 -42q-72 -22 -175 -22q-115 0 -168 46.5t-53 147.5v320q0 12 12 12h41q13 0 13 -12v-317q0 -77 37.5 -109t125.5 -32q71 0 129 14zM295 593q-69 0 -110.5 38.5t-45.5 107.5q0 10 11 10h26q11 0 13 -12 q16 -90 106 -90t106 90q2 12 13 12h26q11 0 11 -10q-4 -69 -45.5 -107.5t-110.5 -38.5z" />
<glyph unicode="&#x16e;" horiz-adv-x="686" d="M343 48q97 0 138.5 66t41.5 204v370q0 12 13 12h44q13 0 13 -12v-374q0 -169 -59 -247.5t-191 -78.5t-191 78.5t-59 247.5v374q0 12 13 12h44q13 0 13 -12v-370q0 -138 41.5 -204t138.5 -66zM292 843q0 -59 51 -59t51 59t-51 59t-51 -59zM343 948q104 0 104 -105 t-104 -105t-104 105t104 105z" />
<glyph unicode="&#x16f;" horiz-adv-x="590" d="M441 62v444q0 12 13 12h40q13 0 13 -12v-450q0 -33 -28 -42q-72 -22 -175 -22q-115 0 -168 46.5t-53 147.5v320q0 12 12 12h41q13 0 13 -12v-317q0 -77 37.5 -109t125.5 -32q71 0 129 14zM244 669q0 -59 51 -59t51 59t-51 59t-51 -59zM295 774q104 0 104 -105t-104 -105 t-104 105t104 105z" />
<glyph unicode="&#x170;" horiz-adv-x="686" d="M343 48q97 0 138.5 66t41.5 204v370q0 12 13 12h44q13 0 13 -12v-374q0 -169 -59 -247.5t-191 -78.5t-191 78.5t-59 247.5v374q0 12 13 12h44q13 0 13 -12v-370q0 -138 41.5 -204t138.5 -66zM424 757q-11 -8 -22 -2l-17 11q-9 6 -1 16l123 147q8 10 18 3l34 -23 q9 -7 1 -16q-60 -76 -136 -136zM233 783q44 79 100 146q10 11 22 2l31 -21q9 -7 1 -16l-114 -136q-9 -11 -24 -2l-15 10q-7 6 -1 17z" />
<glyph unicode="&#x171;" horiz-adv-x="590" d="M441 62v444q0 12 13 12h40q13 0 13 -12v-450q0 -33 -28 -42q-72 -22 -175 -22q-115 0 -168 46.5t-53 147.5v320q0 12 12 12h41q13 0 13 -12v-317q0 -77 37.5 -109t125.5 -32q71 0 129 14zM363 583q-11 -8 -22 -2l-17 11q-9 6 -1 16l123 147q8 10 18 3l34 -23q9 -7 1 -16 q-60 -76 -136 -136zM172 609q44 79 100 146q10 11 22 2l31 -21q9 -7 1 -16l-114 -136q-9 -11 -24 -2l-15 10q-7 6 -1 17z" />
<glyph unicode="&#x172;" horiz-adv-x="686" d="M419 -166q17 0 35 6q13 3 13 -8v-20q0 -12 -9 -17q-18 -12 -56 -12q-46 0 -71 24t-25 69q0 63 52 112h-15q-132 0 -191 78.5t-59 247.5v374q0 12 13 12h44q13 0 13 -12v-370q0 -138 41.5 -204t138.5 -66t138.5 66t41.5 204v370q0 12 13 12h44q13 0 13 -12v-374 q0 -141 -41 -218.5t-130 -98.5q-54 -55 -54 -113q0 -50 51 -50z" />
<glyph unicode="&#x173;" horiz-adv-x="590" d="M439 -166q17 0 35 6q13 3 13 -8v-20q0 -12 -9 -17q-18 -12 -56 -12q-46 0 -71 24t-25 69q0 68 62 121q-45 -5 -84 -5q-115 0 -168 46.5t-53 147.5v320q0 12 12 12h41q13 0 13 -12v-317q0 -77 37.5 -109t125.5 -32q71 0 129 14v444q0 12 13 12h40q13 0 13 -12v-450 q0 -33 -28 -42q-8 -3 -26 -7q-65 -59 -65 -123q0 -50 51 -50z" />
<glyph unicode="&#x174;" horiz-adv-x="904" d="M416 700h72q13 0 16 -12l149 -622l157 623q3 11 15 11h45q13 0 10 -14l-171 -669q-5 -17 -25 -17h-65q-19 0 -23 17l-144 604l-144 -604q-4 -17 -23 -17h-65q-20 0 -25 17l-171 669q-3 14 10 14h45q12 0 15 -11l157 -623l149 622q3 12 16 12zM438 924h28q13 0 24 -10 q58 -51 114 -132q7 -10 -1 -16l-18 -12q-11 -7 -20 2l-113 117l-113 -117q-9 -9 -20 -2l-18 12q-8 6 -1 16q56 81 114 132q11 10 24 10z" />
<glyph unicode="&#x175;" horiz-adv-x="774" d="M360 518h54q16 0 21 -15l124 -450l118 454q3 11 15 11h42q16 0 11 -15l-135 -487q-4 -16 -22 -16h-59q-17 0 -22 16l-120 440l-120 -440q-5 -16 -22 -16h-59q-18 0 -22 16l-135 487q-4 15 11 15h42q12 0 15 -11l118 -454l124 450q5 15 21 15zM373 750h28q13 0 24 -10 q58 -51 114 -132q7 -10 -1 -16l-18 -12q-11 -7 -20 2l-113 117l-113 -117q-9 -9 -20 -2l-18 12q-8 6 -1 16q56 81 114 132q11 10 24 10z" />
<glyph unicode="&#x176;" horiz-adv-x="584" d="M97 690l195 -372l195 372q6 10 17 10h46q16 0 9 -14l-232 -439v-235q0 -12 -13 -12h-44q-13 0 -13 12v235l-232 439q-7 14 9 14h46q11 0 17 -10zM278 924h28q13 0 24 -10q58 -51 114 -132q7 -10 -1 -16l-18 -12q-11 -7 -20 2l-113 117l-113 -117q-9 -9 -20 -2l-18 12 q-8 6 -1 16q56 81 114 132q11 10 24 10z" />
<glyph unicode="&#x177;" horiz-adv-x="590" d="M292 -200q-90 0 -156 17q-11 3 -11 15v26q0 13 14 10q65 -12 142 -12q92 0 126 33t34 112v22q-69 -23 -153 -23q-106 0 -155.5 50t-49.5 166v290q0 12 13 12h40q13 0 13 -12v-303q0 -80 37.5 -113.5t126.5 -33.5q77 0 128 9v441q0 12 13 12h40q13 0 13 -12v-513 q0 -102 -50 -147.5t-165 -45.5zM281 750h28q13 0 24 -10q58 -51 114 -132q7 -10 -1 -16l-18 -12q-11 -7 -20 2l-113 117l-113 -117q-9 -9 -20 -2l-18 12q-8 6 -1 16q56 81 114 132q11 10 24 10z" />
<glyph unicode="&#x178;" horiz-adv-x="584" d="M97 690l195 -372l195 372q6 10 17 10h46q16 0 9 -14l-232 -439v-235q0 -12 -13 -12h-44q-13 0 -13 12v235l-232 439q-7 14 9 14h46q11 0 17 -10zM425 882q0 -45 -13 -84q-4 -11 -17 -11h-29q-14 0 -14 12v87q0 12 13 12h47q13 0 13 -16zM159 803q0 45 13 84q4 11 17 11 h29q14 0 14 -12v-87q0 -12 -13 -12h-47q-13 0 -13 16z" />
<glyph unicode="&#x179;" horiz-adv-x="572" d="M506 612l-385 -552h390q13 0 13 -12v-36q0 -12 -13 -12h-444q-19 0 -19 18v37q0 19 10 33l385 552h-361q-13 0 -13 12v36q0 12 13 12h414q20 0 20 -19v-35q0 -20 -10 -34zM264 757q-11 -8 -22 -2l-17 11q-9 6 -1 16l123 147q8 10 18 3l34 -23q9 -7 1 -16 q-60 -76 -136 -136z" />
<glyph unicode="&#x17a;" horiz-adv-x="493" d="M69 90l293 371h-281q-13 0 -13 12v33q0 12 13 12h328q20 0 20 -20v-30q0 -19 -16 -40l-293 -372h307q13 0 13 -12v-32q0 -12 -13 -12h-354q-20 0 -20 20v30q0 19 16 40zM235 583q-11 -8 -22 -2l-17 11q-9 6 -1 16l123 147q8 10 18 3l34 -23q9 -7 1 -16q-60 -76 -136 -136 z" />
<glyph unicode="&#x17b;" horiz-adv-x="572" d="M506 612l-385 -552h390q13 0 13 -12v-36q0 -12 -13 -12h-444q-19 0 -19 18v37q0 19 10 33l385 552h-361q-13 0 -13 12v36q0 12 13 12h414q20 0 20 -19v-35q0 -20 -10 -34zM335 882q0 -45 -13 -84q-4 -11 -17 -11h-29q-14 0 -14 12v87q0 12 13 12h47q13 0 13 -16z" />
<glyph unicode="&#x17c;" horiz-adv-x="493" d="M69 90l293 371h-281q-13 0 -13 12v33q0 12 13 12h328q20 0 20 -20v-30q0 -19 -16 -40l-293 -372h307q13 0 13 -12v-32q0 -12 -13 -12h-354q-20 0 -20 20v30q0 19 16 40zM289 708q0 -45 -13 -84q-4 -11 -17 -11h-29q-14 0 -14 12v87q0 12 13 12h47q13 0 13 -16z" />
<glyph unicode="&#x17d;" horiz-adv-x="572" d="M506 612l-385 -552h390q13 0 13 -12v-36q0 -12 -13 -12h-444q-19 0 -19 18v37q0 19 10 33l385 552h-361q-13 0 -13 12v36q0 12 13 12h414q20 0 20 -19v-35q0 -20 -10 -34zM305 762h-28q-13 0 -24 10q-58 51 -114 132q-7 10 1 16l18 12q11 7 20 -2l113 -117l113 117 q9 9 20 2l18 -12q8 -6 1 -16q-56 -81 -114 -132q-11 -10 -24 -10z" />
<glyph unicode="&#x17e;" horiz-adv-x="493" d="M69 90l293 371h-281q-13 0 -13 12v33q0 12 13 12h328q20 0 20 -20v-30q0 -19 -16 -40l-293 -372h307q13 0 13 -12v-32q0 -12 -13 -12h-354q-20 0 -20 20v30q0 19 16 40zM266 588h-28q-13 0 -24 10q-58 51 -114 132q-7 10 1 16l18 12q11 7 20 -2l113 -117l113 117 q9 9 20 2l18 -12q8 -6 1 -16q-56 -81 -114 -132q-11 -10 -24 -10z" />
<glyph unicode="&#x1fa;" horiz-adv-x="606" d="M160 177l-53 -168q-3 -9 -16 -9h-47q-15 0 -10 13l206 637q-41 25 -41 90q0 105 104 105t104 -105q0 -66 -42 -90l207 -637q5 -13 -10 -13h-47q-13 0 -16 9l-54 168h-285zM303 623l-124 -386h247zM252 740q0 -59 51 -59t51 59t-51 59t-51 -59zM262 864q-10 -2 -18 4 l-15 12q-11 9 0 15l100 60q11 7 20 1l32 -25q12 -10 -1 -17q-55 -31 -118 -50z" />
<glyph unicode="&#x1fb;" d="M460 12q-82 -20 -185 -20q-121 0 -171.5 38t-50.5 119q0 157 194 157q93 0 175 -28v30q0 94 -35 128t-140 34q-72 0 -132 -11q-14 -2 -14 9v28q0 8 9 11q68 19 153 19q124 0 174.5 -47.5t50.5 -152.5v-274q0 -33 -28 -40zM279 48q81 0 143 14v173q-66 15 -148 15 q-83 0 -119 -23.5t-36 -77.5q0 -55 37 -78t123 -23zM287 774q104 0 104 -105t-104 -105t-104 105t104 105zM236 669q0 -59 51 -59t51 59t-51 59t-51 -59zM246 793q-10 -2 -18 4l-15 12q-11 9 0 15l100 60q11 7 20 1l32 -25q12 -10 -1 -17q-55 -31 -118 -50z" />
<glyph unicode="&#x1fc;" horiz-adv-x="862" d="M545 48h242q12 0 12 -12v-27q0 -10 -12 -12q-100 -9 -225 -9q-91 0 -119.5 31.5t-28.5 118.5v39h-231l-84 -168q-5 -9 -16 -9h-49q-16 0 -9 13l337 666q10 21 33 21h382q13 0 13 -12v-36q0 -12 -13 -12h-293v-256h272q13 0 13 -12v-36q0 -12 -13 -12h-272v-210 q0 -66 61 -66zM414 237v400l-201 -400h201zM551 757q-11 -8 -22 -2l-17 11q-9 6 -1 16l123 147q8 10 18 3l34 -23q9 -7 1 -16q-60 -76 -136 -136z" />
<glyph unicode="&#x1fd;" horiz-adv-x="854" d="M263 48q69 0 119 14v175q-51 13 -124 13q-75 0 -107 -23t-32 -78t33.5 -78t110.5 -23zM446 273h239q27 0 38.5 10.5t11.5 36.5q0 73 -36.5 111.5t-102.5 38.5q-69 0 -108.5 -50t-41.5 -147zM754 61q14 3 14 -10v-27q0 -11 -11 -15q-44 -17 -129 -17q-60 0 -110.5 20.5 t-74.5 58.5v-22q0 -19 -23 -30q-54 -27 -161 -27q-110 0 -158 38t-48 119q0 77 46.5 117t130.5 40q85 0 152 -25v27q0 95 -32 128t-118 33q-59 0 -117 -11q-14 -2 -14 9v28q0 7 9 11q53 20 138 20q141 0 175 -93q57 93 173 93q97 0 151 -56t54 -149q0 -54 -29 -79t-91 -25 h-234q16 -169 186 -169q66 0 121 13zM414 583q-11 -8 -22 -2l-17 11q-9 6 -1 16l123 147q8 10 18 3l34 -23q9 -7 1 -16q-60 -76 -136 -136z" />
<glyph unicode="&#x1fe;" horiz-adv-x="680" d="M493 674l66 116q7 10 18 10h40q12 0 6 -11l-86 -151q80 -86 80 -273v-30q0 -347 -277 -347q-92 0 -153 38l-66 -116q-7 -10 -18 -10h-40q-12 0 -6 11l86 151q-80 86 -80 273v30q0 347 277 347q91 0 153 -38zM547 338v24q0 143 -46 213l-282 -493q44 -34 121 -34 q105 0 156 70t51 220zM340 652q-105 0 -156 -70t-51 -220v-24q0 -143 46 -213l281 493q-46 34 -120 34zM307 757q-11 -8 -22 -2l-17 11q-9 6 -1 16l123 147q8 10 18 3l34 -23q9 -7 1 -16q-60 -76 -136 -136z" />
<glyph unicode="&#x1ff;" d="M47 -98l80 141q-74 65 -74 199v34q0 120 60 185t170 65q61 0 108 -21l65 113q6 10 19 10h38q6 0 7.5 -4t-1.5 -8l-81 -141q75 -64 75 -199v-34q0 -120 -60 -185t-170 -65q-63 0 -109 21l-64 -113q-6 -10 -19 -10h-38q-6 0 -7.5 4t1.5 8zM447 247v24q0 98 -41 148 l-203 -355q32 -16 80 -16q164 0 164 199zM119 271v-24q0 -99 40 -148l203 355q-35 16 -79 16q-164 0 -164 -199zM256 583q-11 -8 -22 -2l-17 11q-9 6 -1 16l123 147q8 10 18 3l34 -23q9 -7 1 -16q-60 -76 -136 -136z" />
<glyph unicode="&#x218;" horiz-adv-x="536" d="M70 5q-10 1 -10 10v34q0 11 13 10q85 -11 172 -11q91 0 129.5 28t38.5 88q0 48 -21 79.5t-69 53.5l-152 70q-113 52 -113 173q0 87 52.5 129.5t165.5 42.5q81 0 163 -17q10 -2 10 -10v-34q0 -11 -13 -9q-80 10 -155 10q-82 0 -117.5 -26t-35.5 -87q0 -81 89 -122l153 -71 q113 -53 113 -183q0 -87 -54.5 -131t-176.5 -44q-99 0 -182 17zM247 -251l-6 3q-25 12 -25 17q0 1 2 5q30 52 30 93q0 16 -4 46q-4 24 -4 34q0 11 13 11h54q12 0 12 -11v-26q0 -104 -60 -171q-3 -3 -7 -3q-1 0 -5 2z" />
<glyph unicode="&#x219;" horiz-adv-x="466" d="M229 -8q-96 0 -161 17q-10 2 -10 11v30q0 11 13 10q77 -12 155 -12q121 0 121 81q0 62 -71 92l-109 45q-109 45 -109 131q0 129 171 129q74 0 144 -17q11 -3 11 -11v-29q0 -13 -13 -10q-63 11 -138 11q-56 0 -82.5 -17t-26.5 -55q0 -52 71 -80l109 -45q109 -46 109 -143 q0 -68 -49 -103t-135 -35zM213 -251l-6 3q-25 12 -25 17q0 1 2 5q30 52 30 93q0 16 -4 46q-4 24 -4 34q0 11 13 11h54q12 0 12 -11v-26q0 -104 -60 -171q-3 -3 -7 -3q-1 0 -5 2z" />
<glyph unicode="&#x21a;" horiz-adv-x="520" d="M225 12v628h-194q-13 0 -13 12v36q0 12 13 12h458q13 0 13 -12v-36q0 -12 -13 -12h-194v-628q0 -12 -13 -12h-44q-13 0 -13 12zM226 -251l-6 3q-25 12 -25 17q0 1 2 5q30 52 30 93q0 16 -4 46q-4 24 -4 34q0 11 13 11h54q12 0 12 -11v-26q0 -104 -60 -171q-3 -3 -7 -3 q-1 0 -5 2z" />
<glyph unicode="&#x21b;" horiz-adv-x="407" d="M357 2q-29 -10 -85 -10q-74 0 -106 39.5t-32 121.5v309h-93q-13 0 -13 12v32q0 12 13 12h93v126q0 12 13 12h40q13 0 13 -12v-126h144q13 0 13 -12v-32q0 -12 -13 -12h-144v-323q0 -47 18 -69t61 -22q34 0 76 5q12 2 12 -11v-25q0 -12 -10 -15zM212 -251l-6 3 q-25 12 -25 17q0 1 2 5q30 52 30 93q0 16 -4 46q-4 24 -4 34q0 11 13 11h54q12 0 12 -11v-26q0 -104 -60 -171q-3 -3 -7 -3q-1 0 -5 2z" />
<glyph unicode="&#x2c6;" horiz-adv-x="386" d="M179 730h28q13 0 24 -10q58 -51 114 -132q7 -10 -1 -16l-18 -12q-11 -7 -20 2l-113 117l-113 -117q-9 -9 -20 -2l-18 12q-8 6 -1 16q56 81 114 132q11 10 24 10z" />
<glyph unicode="&#x2da;" horiz-adv-x="386" d="M142 649q0 -59 51 -59t51 59t-51 59t-51 -59zM193 754q104 0 104 -105t-104 -105t-104 105t104 105z" />
<glyph unicode="&#x2dc;" horiz-adv-x="386" d="M76 581h-23q-9 0 -14 10q-8 18 -8 43q0 42 22 64t61 22q49 0 93 -47q24 -25 37 -33.5t26 -8.5q30 0 30 55q0 9 -2 21q-1 5 2 8t10 3h23q9 0 14 -10q8 -18 8 -43q0 -42 -22 -64t-61 -22q-49 0 -93 47q-24 25 -37 33.5t-26 8.5q-30 0 -30 -55q0 -9 2 -21q1 -5 -2 -8t-10 -3 z" />
<glyph unicode="&#x1e80;" horiz-adv-x="904" d="M416 700h72q13 0 16 -12l149 -622l157 623q3 11 15 11h45q13 0 10 -14l-171 -669q-5 -17 -25 -17h-65q-19 0 -23 17l-144 604l-144 -604q-4 -17 -23 -17h-65q-20 0 -25 17l-171 669q-3 14 10 14h45q12 0 15 -11l157 -623l149 622q3 12 16 12zM459 757q-76 60 -136 136 q-8 9 1 16l34 23q10 7 18 -3l123 -147q8 -10 -1 -16l-17 -11q-11 -6 -22 2z" />
<glyph unicode="&#x1e81;" horiz-adv-x="774" d="M360 518h54q16 0 21 -15l124 -450l118 454q3 11 15 11h42q16 0 11 -15l-135 -487q-4 -16 -22 -16h-59q-17 0 -22 16l-120 440l-120 -440q-5 -16 -22 -16h-59q-18 0 -22 16l-135 487q-4 15 11 15h42q12 0 15 -11l118 -454l124 450q5 15 21 15zM392 583q-76 60 -136 136 q-8 9 1 16l34 23q10 7 18 -3l123 -147q8 -10 -1 -16l-17 -11q-11 -6 -22 2z" />
<glyph unicode="&#x1e82;" horiz-adv-x="904" d="M416 700h72q13 0 16 -12l149 -622l157 623q3 11 15 11h45q13 0 10 -14l-171 -669q-5 -17 -25 -17h-65q-19 0 -23 17l-144 604l-144 -604q-4 -17 -23 -17h-65q-20 0 -25 17l-171 669q-3 14 10 14h45q12 0 15 -11l157 -623l149 622q3 12 16 12zM445 757q-11 -8 -22 -2 l-17 11q-9 6 -1 16l123 147q8 10 18 3l34 -23q9 -7 1 -16q-60 -76 -136 -136z" />
<glyph unicode="&#x1e83;" horiz-adv-x="774" d="M360 518h54q16 0 21 -15l124 -450l118 454q3 11 15 11h42q16 0 11 -15l-135 -487q-4 -16 -22 -16h-59q-17 0 -22 16l-120 440l-120 -440q-5 -16 -22 -16h-59q-18 0 -22 16l-135 487q-4 15 11 15h42q12 0 15 -11l118 -454l124 450q5 15 21 15zM383 583q-11 -8 -22 -2 l-17 11q-9 6 -1 16l123 147q8 10 18 3l34 -23q9 -7 1 -16q-60 -76 -136 -136z" />
<glyph unicode="&#x1e84;" horiz-adv-x="904" d="M416 700h72q13 0 16 -12l149 -622l157 623q3 11 15 11h45q13 0 10 -14l-171 -669q-5 -17 -25 -17h-65q-19 0 -23 17l-144 604l-144 -604q-4 -17 -23 -17h-65q-20 0 -25 17l-171 669q-3 14 10 14h45q12 0 15 -11l157 -623l149 622q3 12 16 12zM585 882q0 -45 -13 -84 q-4 -11 -17 -11h-29q-14 0 -14 12v87q0 12 13 12h47q13 0 13 -16zM319 803q0 45 13 84q4 11 17 11h29q14 0 14 -12v-87q0 -12 -13 -12h-47q-13 0 -13 16z" />
<glyph unicode="&#x1e85;" horiz-adv-x="774" d="M360 518h54q16 0 21 -15l124 -450l118 454q3 11 15 11h42q16 0 11 -15l-135 -487q-4 -16 -22 -16h-59q-17 0 -22 16l-120 440l-120 -440q-5 -16 -22 -16h-59q-18 0 -22 16l-135 487q-4 15 11 15h42q12 0 15 -11l118 -454l124 450q5 15 21 15zM520 708q0 -45 -13 -84 q-4 -11 -17 -11h-29q-14 0 -14 12v87q0 12 13 12h47q13 0 13 -16zM254 629q0 45 13 84q4 11 17 11h29q14 0 14 -12v-87q0 -12 -13 -12h-47q-13 0 -13 16z" />
<glyph unicode="&#x1ef2;" horiz-adv-x="584" d="M97 690l195 -372l195 372q6 10 17 10h46q16 0 9 -14l-232 -439v-235q0 -12 -13 -12h-44q-13 0 -13 12v235l-232 439q-7 14 9 14h46q11 0 17 -10zM307 757q-76 60 -136 136q-8 9 1 16l34 23q10 7 18 -3l123 -147q8 -10 -1 -16l-17 -11q-11 -6 -22 2z" />
<glyph unicode="&#x1ef3;" horiz-adv-x="590" d="M292 -200q-90 0 -156 17q-11 3 -11 15v26q0 13 14 10q65 -12 142 -12q92 0 126 33t34 112v22q-69 -23 -153 -23q-106 0 -155.5 50t-49.5 166v290q0 12 13 12h40q13 0 13 -12v-303q0 -80 37.5 -113.5t126.5 -33.5q77 0 128 9v441q0 12 13 12h40q13 0 13 -12v-513 q0 -102 -50 -147.5t-165 -45.5zM304 583q-76 60 -136 136q-8 9 1 16l34 23q10 7 18 -3l123 -147q8 -10 -1 -16l-17 -11q-11 -6 -22 2z" />
<glyph unicode="&#x2000;" horiz-adv-x="479" />
<glyph unicode="&#x2001;" horiz-adv-x="958" />
<glyph unicode="&#x2002;" horiz-adv-x="479" />
<glyph unicode="&#x2003;" horiz-adv-x="958" />
<glyph unicode="&#x2004;" horiz-adv-x="319" />
<glyph unicode="&#x2005;" horiz-adv-x="239" />
<glyph unicode="&#x2006;" horiz-adv-x="159" />
<glyph unicode="&#x2007;" horiz-adv-x="159" />
<glyph unicode="&#x2008;" horiz-adv-x="119" />
<glyph unicode="&#x2009;" horiz-adv-x="191" />
<glyph unicode="&#x200a;" horiz-adv-x="53" />
<glyph unicode="&#x2010;" horiz-adv-x="432" d="M86 363h260q13 0 13 -12v-38q0 -12 -13 -12h-260q-13 0 -13 12v38q0 12 13 12z" />
<glyph unicode="&#x2011;" horiz-adv-x="432" d="M86 363h260q13 0 13 -12v-38q0 -12 -13 -12h-260q-13 0 -13 12v38q0 12 13 12z" />
<glyph unicode="&#x2012;" horiz-adv-x="432" d="M86 363h260q13 0 13 -12v-38q0 -12 -13 -12h-260q-13 0 -13 12v38q0 12 13 12z" />
<glyph unicode="&#x2013;" horiz-adv-x="500" d="M13 361h474q13 0 13 -12v-34q0 -12 -13 -12h-474q-13 0 -13 12v34q0 12 13 12z" />
<glyph unicode="&#x2014;" horiz-adv-x="1000" d="M13 361h974q13 0 13 -12v-34q0 -12 -13 -12h-974q-13 0 -13 12v34q0 12 13 12z" />
<glyph unicode="&#x2018;" horiz-adv-x="254" d="M166 761l22 -13q7 -3 2 -11q-31 -56 -31 -111q0 -4 5 -39q5 -30 5 -53q0 -12 -13 -12h-55q-13 0 -13 12v27q0 109 64 198q6 7 14 2z" />
<glyph unicode="&#x2019;" horiz-adv-x="254" d="M88 525l-22 13q-7 3 -2 11q31 56 31 111q0 4 -5 39q-5 30 -5 53q0 12 13 12h55q13 0 13 -12v-27q0 -109 -64 -198q-6 -7 -14 -2z" />
<glyph unicode="&#x201a;" horiz-adv-x="254" d="M88 -117l-22 13q-7 3 -2 11q31 56 31 111q0 4 -5 39q-5 30 -5 53q0 12 13 12h55q13 0 13 -12v-27q0 -109 -64 -198q-6 -7 -14 -2z" />
<glyph unicode="&#x201c;" horiz-adv-x="406" d="M318 761l22 -13q7 -3 2 -11q-31 -56 -31 -111q0 -4 5 -39q5 -30 5 -53q0 -12 -13 -12h-55q-13 0 -13 12v27q0 109 64 198q6 7 14 2zM166 761l22 -13q7 -3 2 -11q-31 -56 -31 -111q0 -4 5 -39q5 -30 5 -53q0 -12 -13 -12h-55q-13 0 -13 12v27q0 109 64 198q6 7 14 2z" />
<glyph unicode="&#x201d;" horiz-adv-x="406" d="M240 525l-22 13q-7 3 -2 11q31 56 31 111q0 4 -5 39q-5 30 -5 53q0 12 13 12h55q13 0 13 -12v-27q0 -109 -64 -198q-6 -7 -14 -2zM88 525l-22 13q-7 3 -2 11q31 56 31 111q0 4 -5 39q-5 30 -5 53q0 12 13 12h55q13 0 13 -12v-27q0 -109 -64 -198q-6 -7 -14 -2z" />
<glyph unicode="&#x201e;" horiz-adv-x="406" d="M88 -117l-22 13q-7 3 -2 11q31 56 31 111q0 4 -5 39q-5 30 -5 53q0 12 13 12h55q13 0 13 -12v-27q0 -109 -64 -198q-6 -7 -14 -2zM240 -117l-22 13q-7 3 -2 11q31 56 31 111q0 4 -5 39q-5 30 -5 53q0 12 13 12h55q13 0 13 -12v-27q0 -109 -64 -198q-6 -7 -14 -2z" />
<glyph unicode="&#x2022;" horiz-adv-x="451" d="M103 332q0 60 32.5 92t91.5 32t91.5 -32t32.5 -92t-32.5 -92t-91.5 -32t-91.5 32t-32.5 92z" />
<glyph unicode="&#x2026;" horiz-adv-x="762" d="M85 106q0 16 13 16h55q13 0 13 -12v-98q0 -12 -14 -12h-37q-13 0 -17 11q-13 39 -13 95zM339 106q0 16 13 16h55q13 0 13 -12v-98q0 -12 -14 -12h-37q-13 0 -17 11q-13 39 -13 95zM593 106q0 16 13 16h55q13 0 13 -12v-98q0 -12 -14 -12h-37q-13 0 -17 11q-13 39 -13 95z " />
<glyph unicode="&#x202f;" horiz-adv-x="191" />
<glyph unicode="&#x2039;" horiz-adv-x="344" d="M73 302v20q0 8 6 14q70 70 174 143q8 6 13 -2l12 -17q4 -8 0 -12l-155 -136l155 -136q4 -4 0 -12l-12 -17q-5 -8 -13 -2q-104 73 -174 143q-6 6 -6 14z" />
<glyph unicode="&#x203a;" horiz-adv-x="344" d="M271 322v-20q0 -8 -6 -14q-70 -70 -174 -143q-8 -6 -13 2l-12 17q-4 8 0 12l155 136l-155 136q-4 4 0 12l12 17q5 8 13 2q104 -73 174 -143q6 -6 6 -14z" />
<glyph unicode="&#x205f;" horiz-adv-x="239" />
<glyph unicode="&#x20ac;" horiz-adv-x="555" d="M502 4q-57 -16 -142 -16q-119 0 -184.5 71.5t-79.5 201.5h-61q-12 0 -12 12v24q0 12 12 12h58v81h-58q-12 0 -12 12v24q0 12 12 12h61q13 131 78.5 202.5t182.5 71.5q78 0 135 -17q10 -3 10 -10v-34q0 -11 -13 -9q-57 10 -123 10q-176 0 -200 -214h271q13 0 13 -12v-24 q0 -12 -13 -12h-274v-81h274q13 0 13 -12v-24q0 -12 -13 -12h-271q26 -213 205 -213q71 0 128 10q13 3 13 -10v-31q0 -10 -10 -13z" />
<glyph unicode="&#x2122;" horiz-adv-x="656" d="M441 528l99 161q6 10 19 10h29q13 0 13 -12v-297q0 -12 -13 -12h-23q-14 0 -14 12v231l-82 -136q-6 -9 -20 -9h-16q-14 0 -20 9l-82 136v-231q0 -12 -14 -12h-23q-13 0 -13 12v297q0 12 13 12h29q13 0 19 -10zM108 391v265h-80q-13 0 -13 13v18q0 13 13 13h211 q13 0 13 -13v-18q0 -13 -13 -13h-81v-265q0 -13 -14 -13h-22q-14 0 -14 13z" />
<glyph unicode="&#x25fc;" horiz-adv-x="520" d="M0 520h520v-520h-520v520z" />
</font>
</defs>
</svg>
